<?xml version="1.0" encoding="UTF-8" standalone="no"?>
<!-- Created with Inkscape (http://www.inkscape.org/) -->

<svg
   version="1.1"
   id="svg2"
   xml:space="preserve"
   width="5333.3335"
   height="5333.3335"
   viewBox="0 0 5333.3335 5333.3335"
   sodipodi:docname="18_-06.eps"
   xmlns:inkscape="http://www.inkscape.org/namespaces/inkscape"
   xmlns:sodipodi="http://sodipodi.sourceforge.net/DTD/sodipodi-0.dtd"
   xmlns="http://www.w3.org/2000/svg"
   xmlns:svg="http://www.w3.org/2000/svg"><defs
     id="defs6" /><sodipodi:namedview
     id="namedview4"
     pagecolor="#ffffff"
     bordercolor="#666666"
     borderopacity="1.0"
     inkscape:pageshadow="2"
     inkscape:pageopacity="0.0"
     inkscape:pagecheckerboard="0" /><g
     id="g8"
     inkscape:groupmode="layer"
     inkscape:label="ink_ext_XXXXXX"
     transform="matrix(1.3333333,0,0,-1.3333333,0,5333.3333)"><g
       id="g10"
       transform="scale(0.1)"><path
         d="M 0,0 H 40000 V 40000 H 0 Z"
         style="fill:#81fff3;fill-opacity:1;fill-rule:nonzero;stroke:none"
         id="path12" /><path
         d="m 18666.6,6705.4 c -6559.8,276.1 -11677.93,2567.4 -11677.93,5353.1 0,222.6 32.73,442.2 96.19,657.6 303.95,-249.6 612.43,-412.3 759.91,-483.2 245.55,-989 2472.63,-2264.2 4482.93,-2910.9 1824.6,-586.9 5644.5,-2161.3 6304.3,-2434.6 7.9,-63.6 19.6,-124.3 34.6,-182 m 2666.8,0 c 15,57.7 26.7,118.4 34.6,182 659.8,273.3 4479.7,1847.7 6304.2,2434.6 2010.4,646.7 4237.5,1921.9 4483,2910.9 147.5,70.9 456,233.6 759.9,483.2 63.5,-215.5 96.2,-435 96.2,-657.6 0,-2785.7 -5118.1,-5077 -11677.9,-5353.1"
         style="fill:#73ccda;fill-opacity:1;fill-rule:nonzero;stroke:none"
         id="path14" /><path
         d="m 19943.8,18711 c -6898.7,0 -12400.88,-4105.5 -12400.88,-4105.5 -291.02,92.9 -562.95,36.1 -758.43,-41 -202.56,-79.9 -336.02,-281.4 -320.43,-498.6 78.45,-1092.7 1536.37,-1711.9 1536.37,-1711.9 96.32,-890.9 2359.77,-2215.3 4380.97,-2865.4 2021.1,-650.2 6415.6,-2480.2 6415.6,-2480.2 54.2,-1056.5 1203,-1155.8 1203,-1155.8 0,0 1148.8,99.3 1203,1155.8 0,0 4394.5,1830 6415.6,2480.2 2021.2,650.1 4284.6,1974.5 4381,2865.4 0,0 1457.9,619.2 1536.3,1711.9 15.6,217.2 -117.8,418.7 -320.4,498.6 -195.5,77.1 -467.4,133.9 -758.4,41 0,0 -5502.2,4105.5 -12400.9,4105.5 h -112.4"
         style="fill:#35ef96;fill-opacity:1;fill-rule:nonzero;stroke:none"
         id="path16" /><path
         d="m 29266.1,13093.6 c 143.4,-280.6 553.9,-357.6 916.8,-172.2 362.9,185.5 540.8,563.4 397.4,843.9 -143.4,280.6 -553.9,357.7 -916.8,172.2 -362.9,-185.5 -540.8,-563.3 -397.4,-843.9"
         style="fill:#ffffff;fill-opacity:1;fill-rule:nonzero;stroke:none"
         id="path18" /><path
         d="m 26122.8,10843.6 c 143.5,-280.6 553.9,-357.6 916.8,-172.2 362.9,185.5 540.8,563.4 397.4,843.9 -143.4,280.6 -553.9,357.7 -916.7,172.2 -362.9,-185.5 -540.9,-563.3 -397.5,-843.9"
         style="fill:#ffffff;fill-opacity:1;fill-rule:nonzero;stroke:none"
         id="path20" /><path
         d="m 11766.7,10624.6 c 143.4,-280.6 553.8,-357.7 916.7,-172.2 362.9,185.5 540.8,563.3 397.4,843.9 -143.4,280.6 -553.8,357.6 -916.7,172.1 -362.9,-185.4 -540.8,-563.3 -397.4,-843.8"
         style="fill:#ffffff;fill-opacity:1;fill-rule:nonzero;stroke:none"
         id="path22" /><path
         d="m 16531.2,9907.3 c 143.4,-280.6 553.9,-357.7 916.8,-172.2 362.9,185.5 540.8,563.3 397.4,843.9 -143.4,280.6 -553.9,357.7 -916.8,172.1 -362.9,-185.4 -540.8,-563.3 -397.4,-843.8"
         style="fill:#ffffff;fill-opacity:1;fill-rule:nonzero;stroke:none"
         id="path24" /><path
         d="m 20888.6,8987.2 c 231.2,-452.4 893,-576.7 1478.1,-277.6 585,299.1 871.9,908.2 640.7,1360.6 -231.2,452.3 -893,576.6 -1478.1,277.5 -585,-299 -871.9,-908.2 -640.7,-1360.5"
         style="fill:#ffffff;fill-opacity:1;fill-rule:nonzero;stroke:none"
         id="path26" /><path
         d="m 7989.68,13358.6 c 231.21,-452.4 892.96,-576.6 1478.04,-277.6 585.08,299.1 871.98,908.3 640.78,1360.6 -231.27,452.4 -893.02,576.6 -1478.1,277.6 -585.09,-299.1 -871.95,-908.3 -640.72,-1360.6"
         style="fill:#ffffff;fill-opacity:1;fill-rule:nonzero;stroke:none"
         id="path28" /><path
         d="m 20000,8555.8 c -968.5,0 -1331.6,608 -1463.1,979.2 -67.2,189.5 -212.9,340.7 -398.2,418.6 -106.6,44.9 -213.1,89.6 -319.2,134 64.2,119.2 89.7,247.5 67.9,367.1 380.5,-155.3 668,-274 809.7,-332.7 105.4,-824.7 877.5,-1111.2 1287.8,-1146.7 5,-0.4 10.1,-0.6 15.1,-0.6 5,0 10.1,0.2 15.1,0.6 214.9,18.6 529.2,106.1 794.8,303.8 6,-101.2 31.6,-199.8 78.7,-291.9 25.1,-49.1 55.2,-94.3 89.8,-135.5 -225,-171.1 -539.6,-295.9 -978.4,-295.9 m 2776.7,1779.8 c -145.1,103.8 -329.7,163.1 -530.8,173.4 1359.9,553.7 3719.7,1497.2 5015.5,1914 593.9,191 1296.9,478.2 1959.3,816.5 6.8,-50.4 21.7,-99.5 45.4,-145.9 41.4,-81 105.1,-145 183.4,-190.6 -717,-368.9 -1650.7,-732.8 -2866.4,-1049.9 -75.1,-19.5 -149.2,-43.3 -221.5,-71.6 -406.1,-159.5 -1897,-747.4 -3584.9,-1445.9 m -6101.8,225.9 c -1454.2,596.7 -2675,1078 -3036.5,1220 -72.3,28.3 -146.4,52.1 -221.5,71.6 -1681.9,438.7 -2824.1,967 -3599.36,1474.1 100.06,94.9 181.99,200.5 243.16,311.1 839.6,-508.8 1861.8,-952.8 2677.9,-1215.3 1089.9,-350.6 2932.4,-1073.7 4299.7,-1624.1 -36.9,-13.4 -73.5,-29.2 -109.7,-47.8 -99.3,-50.7 -184.8,-115.9 -253.7,-189.6 m 13947.3,3080 c -7.8,42.7 -21.7,84.2 -41.9,123.8 -38.6,75.6 -96.6,136.4 -167.8,181.3 514.2,362.1 907.1,743.7 1054.6,1107.6 84.2,-52.5 162.9,-102.3 235.8,-149 -134.3,-292.6 -431.2,-754.4 -1080.7,-1263.7 m -22165.55,974 c -69.41,108.5 -121.13,206 -159.52,289.7 72.91,46.7 151.57,96.5 235.79,149 40.03,-98.8 98.13,-198.8 171.85,-299.5 -24.91,-11.1 -49.7,-22.9 -74.37,-35.5 -61.28,-31.4 -119.27,-66.1 -173.75,-103.7"
         style="fill:#36a78c;fill-opacity:1;fill-rule:nonzero;stroke:none"
         id="path30" /><path
         d="m 29449.5,12903 c -78.3,45.6 -142,109.6 -183.4,190.6 -23.7,46.4 -38.6,95.5 -45.4,145.9 427.7,218.4 838.4,458.1 1191.8,707.1 71.2,-44.9 129.2,-105.7 167.8,-181.3 20.2,-39.6 34.1,-81.1 41.9,-123.8 -306,-239.8 -690.4,-490.4 -1172.7,-738.5"
         style="fill:#c3b2d6;fill-opacity:1;fill-rule:nonzero;stroke:none"
         id="path32" /><path
         d="m 17819.5,10087.6 c -389.8,162.9 -774.7,322.1 -1144.6,473.9 68.9,73.7 154.4,138.9 253.7,189.6 36.2,18.6 72.8,34.4 109.7,47.8 312.7,-125.9 600.8,-242.9 849.1,-344.2 21.8,-119.6 -3.7,-247.9 -67.9,-367.1"
         style="fill:#c3b2d6;fill-opacity:1;fill-rule:nonzero;stroke:none"
         id="path34" /><path
         d="m 20978.4,8851.7 c -34.6,41.2 -64.7,86.4 -89.8,135.5 -47.1,92.1 -72.7,190.7 -78.7,291.9 241.5,179.7 442.8,450.3 493,842.9 157.8,65.4 496.5,205.2 943,387 201.1,-10.3 385.7,-69.6 530.8,-173.4 -300.6,-124.4 -607.3,-252.3 -915.4,-382 -185.3,-77.9 -331.1,-229.1 -398.2,-418.6 -71.9,-203 -213.1,-476.8 -484.7,-683.3"
         style="fill:#c3b2d6;fill-opacity:1;fill-rule:nonzero;stroke:none"
         id="path36" /><path
         d="m 9817.54,13327.2 c -733.41,479.8 -1138.32,940.6 -1360.89,1288.3 54.48,37.6 112.47,72.3 173.75,103.7 24.67,12.6 49.46,24.4 74.37,35.5 276.33,-377.2 771.96,-762.5 1355.93,-1116.4 -61.17,-110.6 -143.1,-216.2 -243.16,-311.1"
         style="fill:#c3b2d6;fill-opacity:1;fill-rule:nonzero;stroke:none"
         id="path38" /><path
         d="m 19999.9,6028.6 c -129.6,15.6 -985.1,150.1 -1028.1,988.8 -3.4,67.3 -45.3,126.7 -107.5,152.6 -44,18.3 -4424.5,1840.3 -6429.4,2485.2 -2150.8,691.8 -4181.49,1987.2 -4260.49,2717.6 -6.79,63.1 -47.22,117.5 -105.57,142.3 -13.47,5.7 -1360.45,591.5 -1430.23,1563.3 -9.86,137.7 76.52,270.6 210.07,323.3 47.54,18.7 94.7,34.1 141.38,46 -32.16,-326.4 42.39,-1327.3 2005.02,-1908.1 185.79,-54.9 288.55,-247.9 238.94,-435.2 -23.89,-90.3 -26.94,-179.9 20.97,-241.1 135.13,-171.9 1902.31,-1370.7 5042.31,-2256.6 3008.9,-848.7 3434.8,-1651.7 4298.9,-1711.1 184.5,-12.7 342.5,-132.6 400.4,-308.3 119.8,-363.9 400.1,-909.8 1003.4,-909.8 603.3,0 883.6,545.9 1003.4,909.8 57.8,175.7 215.9,295.6 400.4,308.3 864.1,59.4 1290,862.4 4298.9,1711.1 3140,885.9 4907.2,2084.7 5042.3,2256.6 47.9,61.2 44.9,150.8 21,241.1 -49.6,187.3 53.1,380.3 238.9,435.2 1962.7,580.8 2037.2,1581.7 2005,1908.1 46.7,-12 93.9,-27.3 141.4,-46 133.6,-52.7 220,-185.6 210.1,-323.3 -70,-974.7 -1416.6,-1557.5 -1430.2,-1563.3 -58.4,-24.8 -98.8,-79.2 -105.6,-142.3 -79,-730.4 -2109.7,-2025.8 -4260.5,-2717.6 -2005,-644.9 -6385.4,-2466.9 -6429.4,-2485.2 -62.2,-25.9 -104,-85.3 -107.5,-152.6 -43,-838 -897.1,-973 -1028.3,-988.8"
         style="fill:#36a78c;fill-opacity:1;fill-rule:nonzero;stroke:none"
         id="path40" /><path
         d="m 21375.6,6979.6 c 5.8,34.1 5.4,56 5.3,83.2 -0.9,25.9 -3.2,51.5 -7.4,77 -7.8,51 -22.5,101.4 -42.1,150.1 -20.7,48.5 -47.3,95.6 -80.9,137.1 -33.3,41.7 -76.5,76.6 -123,99.7 l -47.7,-37.3 c 5.1,-46.9 5.4,-88 3.6,-127.5 -3.2,-40.1 -6.9,-77.4 -13.6,-114.8 -6.1,-37.2 -13.9,-73.8 -20.9,-109.8 l -10.8,-53.4 c -2.7,-16.3 -7.1,-37.7 -7.8,-46.7 l 345.3,-57.6"
         style="fill:#390176;fill-opacity:1;fill-rule:nonzero;stroke:none"
         id="path42" /><path
         d="m 31913.2,12506.2 c 6.3,3 -3.5,-2.3 -6.9,-4.2 l -17.6,-8.9 c -12.5,-6.3 -26.3,-12.2 -40.2,-18.2 -28.7,-11.1 -58.4,-23.7 -89.6,-34.2 -61.9,-22.4 -127,-42.9 -193.8,-61.5 -66.6,-19.8 -135.1,-35.4 -204.1,-55.4 -69.3,-18.3 -139.4,-38.8 -210.6,-64.4 l 0.7,-75.6 c 36.5,-11.6 73.2,-21.6 110.1,-30 36.9,-7.9 74.1,-14.3 111.4,-19.6 74.7,-9.9 149.9,-14.2 226.1,-14.7 76.2,-0.8 153.3,3.1 231.8,13.1 39.1,5.5 79,11.9 119.1,21.9 20.3,5.2 40.7,10.5 61.9,17.2 10.4,3.2 21.8,7.1 32.5,11.2 13.1,5.5 19.8,7.4 41.9,19 l -172.7,304.3"
         style="fill:#390176;fill-opacity:1;fill-rule:nonzero;stroke:none"
         id="path44" /><path
         d="m 18969.7,7037.2 c -0.7,9 -5.1,30.4 -7.8,46.7 l -10.8,53.4 c -7,36 -14.8,72.6 -20.9,109.8 -6.7,37.5 -10.4,74.8 -13.6,114.8 -1.8,39.5 -1.5,80.6 3.6,127.5 l -47.7,37.3 c -46.5,-23.1 -89.7,-58 -123,-99.7 -33.6,-41.5 -60.2,-88.5 -80.9,-137.1 -19.6,-48.7 -34.3,-99.1 -42.1,-150.1 -4.2,-25.5 -6.5,-51.1 -7.4,-77 -0.1,-27.2 -0.5,-49.1 5.3,-83.2 l 345.3,57.6"
         style="fill:#390176;fill-opacity:1;fill-rule:nonzero;stroke:none"
         id="path46" /><path
         d="m 7914.06,12201.9 c 22.17,-11.6 28.88,-13.5 41.9,-19 10.74,-4.1 22.14,-8 32.54,-11.2 21.19,-6.7 41.58,-12 61.87,-17.2 40.16,-10 80.07,-16.4 119.16,-21.9 78.52,-10 155.54,-13.9 231.74,-13.1 76.24,0.5 151.44,4.8 226.17,14.7 37.28,5.3 74.44,11.7 111.38,19.6 36.89,8.4 73.61,18.4 110.06,30 l 0.7,75.6 c -71.21,25.6 -141.28,46.1 -210.57,64.5 -68.99,19.9 -137.52,35.6 -204.1,55.3 -66.79,18.6 -131.96,39.1 -193.85,61.6 -31.17,10.4 -60.81,23 -89.52,34.1 -13.97,6 -27.79,11.9 -40.24,18.2 l -17.57,8.9 c -3.45,1.9 -13.21,7.2 -6.91,4.2 l -172.76,-304.3"
         style="fill:#390176;fill-opacity:1;fill-rule:nonzero;stroke:none"
         id="path48" /><path
         d="m 20000,5677.6 c 5,0 10.1,0.2 15.1,0.6 431.8,37.4 1245,339.4 1352.9,1209.2 659.8,273.3 4479.7,1847.7 6304.2,2434.6 2010.4,646.7 4237.5,1921.9 4483,2910.9 332.2,159.7 1480.9,784.8 1555.3,1820.4 20.7,288.7 -156.4,565.8 -430.8,674 -266.3,104.9 -536.8,128.4 -788.1,69.2 -310,221 -1626.7,1127.2 -3575,2020.8 C 26859,17761 23651.5,18886 20056.2,18886 v -350 c 3528.5,0 6681.9,-1105.5 8706,-2032.9 2197.8,-1007 3576.6,-2027.7 3590.2,-2037.9 45.4,-33.7 104.2,-43.6 157.9,-26.5 200.5,64.1 416.2,51.6 641,-37 133.6,-52.7 220,-185.6 210.1,-323.3 -70,-974.7 -1416.6,-1557.5 -1430.2,-1563.3 -58.4,-24.8 -98.8,-79.2 -105.6,-142.3 -79,-730.4 -2109.7,-2025.8 -4260.5,-2717.6 -2005,-644.9 -6385.4,-2466.9 -6429.4,-2485.2 -62.2,-25.9 -104,-85.3 -107.5,-152.6 -43,-838 -897.1,-973 -1028.3,-988.8 -129.6,15.6 -985.1,150.1 -1028.1,988.8 -3.4,67.3 -45.3,126.7 -107.5,152.6 -44,18.3 -4424.5,1840.3 -6429.4,2485.2 -2150.8,691.8 -4181.49,1987.2 -4260.49,2717.6 -6.79,63.1 -47.22,117.5 -105.57,142.3 -13.47,5.7 -1360.45,591.5 -1430.23,1563.3 -9.86,137.7 76.52,270.6 210.07,323.3 224.75,88.6 440.58,101.1 641.01,37 53.86,-17.1 112.6,-7.3 157.86,26.5 13.67,10.2 1392.48,1030.9 3590.25,2037.9 2024.1,927.4 5177.6,2032.9 8706,2032.9 v 350 c -3595.2,0 -6802.7,-1125 -8860.4,-2068.7 -1948.3,-893.6 -3265,-1799.8 -3574.96,-2020.8 -251.32,59.2 -521.92,35.7 -788.14,-69.2 -274.36,-108.2 -451.51,-385.3 -430.8,-673.9 74.36,-1035.7 1223.14,-1660.8 1555.27,-1820.5 245.55,-989 2472.63,-2264.2 4482.93,-2910.9 1824.6,-586.9 5644.5,-2161.3 6304.3,-2434.6 107.9,-869.8 921.1,-1171.8 1352.9,-1209.2 5,-0.4 10.1,-0.6 15.1,-0.6"
         style="fill:#390176;fill-opacity:1;fill-rule:nonzero;stroke:none"
         id="path50" /><path
         d="m 7194,16920 c 74.5,-1034 1453.5,-1619.5 1453.5,-1619.5 91,-843 2232.5,-2096 4144.5,-2711 1912.5,-615 6070,-2346.5 6070,-2346.5 51,-999.5 1138,-1093.5 1138,-1093.5 0,0 1087,94 1138,1093.5 0,0 4157.5,1731.5 6070,2346.5 1912,615 4053.5,1868 4144.5,2711 0,0 1379,585.5 1453.5,1619.5 14.5,205.5 -111.5,396 -303,471.5 -45.5,18 -95,34.5 -148,48 v 0.5 c -164,42.5 -361.5,57 -569.5,-9.5 0,0 -5205.5,3884 -11732.5,3884 h -106 c -6527,0 -11732.5,-3884 -11732.5,-3884 -275,88 -532.5,34 -717.5,-39 -191.5,-75.5 -317.5,-266 -303,-471.5"
         style="fill:#f72163;fill-opacity:1;fill-rule:nonzero;stroke:none"
         id="path52" /><path
         d="m 21721.6,13225.1 -510.3,149.4 149.5,-510.2 -149.5,-510.3 510.3,149.5 510.2,-149.5 -149.4,510.3 149.4,510.2 -510.2,-149.4"
         style="fill:#ffffff;fill-opacity:1;fill-rule:nonzero;stroke:none"
         id="path54" /><path
         d="m 9699.1,16991.7 -510.23,149.5 149.45,-510.3 -149.45,-510.2 510.23,149.4 510.2,-149.4 -149.4,510.2 149.4,510.3 -510.2,-149.5"
         style="fill:#ffffff;fill-opacity:1;fill-rule:nonzero;stroke:none"
         id="path56" /><path
         d="m 27064.8,14853 -746.1,218.5 218.6,-746 -218.6,-746 746.1,218.5 746,-218.5 -218.5,746 218.5,746 -746,-218.5"
         style="fill:#ffffff;fill-opacity:1;fill-rule:nonzero;stroke:none"
         id="path58" /><path
         d="m 17598,13391.8 -746,218.5 218.5,-746 -218.5,-746 746,218.5 746.1,-218.5 -218.5,746 218.5,746 -746.1,-218.5"
         style="fill:#ffffff;fill-opacity:1;fill-rule:nonzero;stroke:none"
         id="path60" /><path
         d="m 20000,11600 c -914.3,0 -1257.2,574.1 -1381.4,924.5 -63.3,178.9 -200.9,321.6 -375.9,395.3 -29.9,12.6 -59.9,25.2 -89.8,37.7 l 99.4,339.5 c 232.9,-95.5 410.6,-168.8 512.6,-211 102.9,-777.7 832,-1048.2 1220,-1081.8 5,-0.4 10.1,-0.6 15.1,-0.6 5,0 10.1,0.2 15.1,0.6 388,33.6 1117.1,304.1 1220,1081.8 16.2,6.7 34.3,14.1 54.2,22.4 l 71.5,-244.1 -149.5,-510.3 114.1,33.4 C 21164.9,12042.3 20802.6,11600 20000,11600 m 2146.4,1482.8 85.4,291.7 -510.2,-149.4 -87.1,25.5 c 1111.1,456.1 3807.6,1549.5 5199,1997.1 1504.3,483.9 3752.3,1623.5 4000.4,2595.5 2.9,1.4 5.8,2.9 8.9,4.4 89,-55.4 171.5,-107.8 247.1,-156.5 -195.6,-503.8 -998.9,-1816.3 -4197.9,-2787.5 l -573.3,167.9 89.9,-306.9 c -63.6,-17.3 -128.1,-34.5 -193.4,-51.5 -70.9,-18.5 -140.8,-40.9 -209,-67.6 -421.3,-165.4 -2078.1,-818.9 -3859.8,-1562.7"
         style="fill:#be1769;fill-opacity:1;fill-rule:nonzero;stroke:none"
         id="path62" /><path
         d="m 21211.3,12354 149.5,510.3 -71.5,244.1 c 84.4,34.9 201.5,83.2 345.2,142.2 l 87.1,-25.5 510.2,149.4 -85.4,-291.7 c -129.3,-53.9 -259,-108.3 -389.1,-163 -175,-73.7 -312.6,-216.4 -375.9,-395.3 -15.2,-42.8 -33.7,-89 -56,-137.1 l -114.1,-33.4"
         style="fill:#c3b2d6;fill-opacity:1;fill-rule:nonzero;stroke:none"
         id="path64" /><path
         d="m 17598,13391.8 -746,218.5 37.7,-128.5 c -1385.7,568.8 -2552.1,1028.7 -2895.9,1163.7 -68.2,26.7 -138.1,49.1 -209,67.6 -1751.8,456.8 -2883.6,1016.8 -3614,1539.2 l -110.9,378.6 36.9,126.1 c 852.6,-627.3 2111.9,-1201.2 3069.7,-1509.3 1206,-387.9 3392.5,-1261.1 4677.3,-1783.9 l -245.8,-72 m -7898.9,3599.9 -460.89,135 c -177.59,232.2 -275.14,428 -328.11,564.4 75.62,48.7 158.12,101.1 247.13,156.5 3.02,-1.5 5.98,-3 8.88,-4.4 68.78,-269.4 291.16,-551.7 608.77,-829.3 l -75.78,-22.2"
         style="fill:#be1769;fill-opacity:1;fill-rule:nonzero;stroke:none"
         id="path66" /><path
         d="m 10170.8,16252.3 c -441.24,315.6 -735.94,617.3 -932.59,874.4 l 460.89,-135 75.78,22.2 c 98.68,-86.2 206.61,-172.1 321.92,-256.9 l -36.9,-126.1 110.9,-378.6"
         style="fill:#c3b2d6;fill-opacity:1;fill-rule:nonzero;stroke:none"
         id="path68" /><path
         d="m 26408.6,14764.6 -89.9,306.9 573.3,-167.9 c -155.5,-47.2 -316.3,-93.5 -483.4,-139"
         style="fill:#c3b2d6;fill-opacity:1;fill-rule:nonzero;stroke:none"
         id="path70" /><path
         d="m 18152.9,12957.5 c -429.9,180.6 -855.9,357.1 -1263.2,524.3 l -37.7,128.5 746,-218.5 245.8,72 c 149.3,-60.8 286.5,-116.8 408.5,-166.8 l -99.4,-339.5"
         style="fill:#c3b2d6;fill-opacity:1;fill-rule:nonzero;stroke:none"
         id="path72" /><path
         d="m 19999.9,9325.7 c -124.8,15.1 -923,142.9 -963.2,926.4 -3.5,67.3 -45.3,126.7 -107.5,152.6 -41.7,17.3 -4186.2,1741.2 -6083.4,2351.5 -2031.8,653.5 -3949.9,1875.2 -4024.28,2563.1 -6.77,63 -47.21,117.4 -105.56,142.3 -12.65,5.4 -1281.79,557.4 -1347.37,1470.9 -9.08,126.2 70.22,248.1 192.79,296.4 20.84,8.2 41.58,15.7 62.25,22.5 -2.74,-374.5 196.22,-1219.3 1911.21,-1726.8 176.68,-52.3 274.39,-235.8 227.22,-413.9 -22.72,-85.8 -25.62,-171 19.94,-229.2 128.5,-163.5 1809,-1303.5 4795,-2146 2861.4,-807 3266.3,-1570.6 4088,-1627.1 175.5,-12.1 325.8,-126.2 380.8,-293.2 114,-346.1 380.5,-865.2 954.2,-865.2 573.7,0 840.2,519.1 954.2,865.2 55,167 205.3,281.1 380.8,293.2 821.7,56.5 1226.7,820.1 4088,1627.1 2986,842.5 4666.5,1982.5 4795,2146 45.6,58.2 42.7,143.4 19.9,229.2 -47.1,178.1 50.6,361.6 227.3,413.9 1715,507.5 1913.9,1352.4 1911.2,1726.9 20.6,-6.8 41.4,-14.4 62.2,-22.6 122.6,-48.3 201.9,-170.2 192.8,-296.4 -65.6,-913.5 -1334.7,-1465.5 -1347.5,-1471 -58.2,-24.9 -98.6,-79.3 -105.4,-142.2 -74.4,-687.9 -1992.5,-1909.6 -4024.3,-2563.1 -1897.2,-610.3 -6041.7,-2334.2 -6083.4,-2351.5 -62.2,-25.9 -104,-85.3 -107.5,-152.6 -40.1,-782.9 -837.2,-911 -963.4,-926.4"
         style="fill:#be1769;fill-opacity:1;fill-rule:nonzero;stroke:none"
         id="path74" /><path
         d="m 21310.7,10214.4 c 5.6,32.8 5.2,53.6 4.9,79.6 -1,24.7 -3.2,49.2 -7.4,73.5 -7.8,48.7 -22.4,96.7 -41.5,143.1 -20.4,46.2 -46.3,91 -79.1,130.2 -32.5,39.6 -74.5,72.5 -119.6,93.7 l -47.7,-37.3 c 3.7,-45.1 2.8,-84.1 0.2,-121.4 -4,-37.9 -8.4,-72.9 -15.5,-108 -6.4,-34.9 -14.4,-69.1 -21.4,-102.8 l -10.7,-49.9 c -2.6,-15.1 -7,-35.3 -7.4,-43.2 l 345.2,-57.5"
         style="fill:#390176;fill-opacity:1;fill-rule:nonzero;stroke:none"
         id="path76" /><path
         d="m 31260.6,15462.3 c 7.6,3.6 -1.8,-1.6 -4.5,-3.1 l -15.7,-8.4 c -11.3,-5.8 -24,-11.5 -36.8,-17.2 -26.5,-10.6 -53.9,-22.9 -83,-33.1 -57.6,-21.9 -118.5,-42.3 -181.2,-61 -62.4,-19.9 -126.9,-35.9 -191.8,-56.5 -65.2,-19 -131.3,-40.5 -198.6,-67.6 l -0.6,-0.3 c -21.9,-8.9 -32.6,-33.9 -23.7,-55.8 4.7,-11.7 14.1,-20.2 25.1,-24.3 69,-25.1 139.2,-42.3 210.1,-53.6 71.1,-11.1 142.6,-16.3 215.3,-18 72.6,-1.9 146.2,0.8 221.5,9.5 37.4,4.9 75.8,10.6 114.4,20 19.6,4.9 39.3,9.9 59.8,16.3 10.1,3 21.2,6.8 31.7,10.7 12.9,5.4 19.1,7.1 41.7,18.8 89.3,50.7 120.7,164.2 70,253.6 -50.8,89.4 -164.3,120.7 -253.7,70"
         style="fill:#390176;fill-opacity:1;fill-rule:nonzero;stroke:none"
         id="path78" /><path
         d="m 19034.5,10271.9 c -0.4,7.9 -4.8,28.1 -7.4,43.2 l -10.7,49.9 c -7,33.7 -15,67.9 -21.4,102.9 -7.1,35 -11.5,70 -15.5,107.9 -2.6,37.3 -3.5,76.3 0.2,121.4 l -47.7,37.3 c -45.1,-21.2 -87.1,-54.1 -119.6,-93.7 -32.8,-39.2 -58.7,-84 -79.1,-130.2 -19.1,-46.4 -33.7,-94.4 -41.5,-143.1 -4.2,-24.3 -6.4,-48.8 -7.4,-73.5 -0.3,-26 -0.7,-46.8 4.9,-79.6 l 345.2,57.5"
         style="fill:#390176;fill-opacity:1;fill-rule:nonzero;stroke:none"
         id="path80" /><path
         d="m 8555.71,15138.7 c 22.63,-11.7 28.84,-13.4 41.68,-18.8 10.47,-3.9 21.6,-7.7 31.69,-10.7 20.55,-6.4 40.23,-11.4 59.79,-16.3 38.67,-9.4 77.02,-15.1 114.47,-20 75.25,-8.7 148.83,-11.4 221.44,-9.5 72.73,1.7 144.24,6.9 215.28,18 70.9,11.3 141.09,28.5 210.14,53.6 22.24,8.1 33.74,32.7 25.63,55 -4.3,11.8 -13.28,20.6 -24.1,25 l -0.78,0.4 c -67.28,27.1 -133.35,48.6 -198.58,67.6 -64.92,20.6 -129.37,36.6 -191.8,56.5 -62.65,18.7 -123.61,39.1 -181.18,61 -29.05,10.2 -56.49,22.5 -82.95,33.1 -12.87,5.7 -25.54,11.4 -36.82,17.2 l -15.75,8.4 c -2.68,1.5 -12.11,6.7 -4.49,3.1 -89.36,50.7 -202.91,19.4 -253.64,-70 -50.71,-89.3 -19.38,-202.9 69.97,-253.6"
         style="fill:#390176;fill-opacity:1;fill-rule:nonzero;stroke:none"
         id="path82" /><path
         d="m 20000,8974.7 c 5,0 10.1,0.2 15.1,0.6 410.3,35.5 1182.4,322.1 1287.8,1146.7 638.4,264.4 4237.2,1747.3 5958.5,2301 1599.6,514.5 3991.3,1726.5 4246.8,2756.5 321,155 1401.9,747.8 1472.3,1727.9 19.9,277.1 -150.1,543.3 -413.5,647.1 -252.2,99.4 -508.6,122.1 -747.1,66.9 -299.9,213.5 -1543.7,1067.9 -3380.2,1910.2 -1947.6,893.3 -4983.5,1958 -8386.6,1958 v -350 c 3336.3,0 6318.2,-1045.3 8232.2,-1922.2 2078.5,-952.3 3382.4,-1917.6 3395.4,-1927.2 45.3,-33.7 104.1,-43.5 157.8,-26.4 187.6,59.9 389.5,48.1 600.1,-34.9 122.6,-48.3 201.9,-170.2 192.8,-296.4 -65.6,-913.5 -1334.7,-1465.5 -1347.5,-1471 -58.2,-24.9 -98.6,-79.3 -105.4,-142.2 -74.4,-687.9 -1992.5,-1909.6 -4024.3,-2563.1 -1897.2,-610.3 -6041.7,-2334.2 -6083.4,-2351.5 -62.2,-25.9 -104,-85.3 -107.5,-152.6 -40.1,-782.9 -837.2,-911 -963.4,-926.4 -124.8,15.1 -923,142.9 -963.2,926.4 -3.5,67.3 -45.3,126.7 -107.5,152.6 -41.7,17.3 -4186.2,1741.2 -6083.4,2351.5 -2031.8,653.5 -3949.9,1875.2 -4024.28,2563.1 -6.77,63 -47.21,117.4 -105.56,142.3 -12.65,5.4 -1281.79,557.4 -1347.37,1470.9 -9.08,126.2 70.22,248.1 192.79,296.4 210.64,82.9 412.45,94.8 600.09,34.9 53.85,-17.2 112.6,-7.3 157.86,26.4 12.94,9.6 1316.9,974.9 3395.37,1927.2 1914,876.9 4895.8,1922.2 8232.1,1922.2 v 350 c -3403.1,0 -6438.9,-1064.7 -8386.5,-1958 -1836.52,-842.3 -3080.33,-1696.7 -3380.23,-1910.2 -238.33,55.2 -494.68,32.6 -747.07,-66.9 -263.38,-103.8 -433.4,-370 -413.52,-647.1 70.36,-980.1 1151.31,-1572.9 1472.36,-1727.9 255.47,-1030 2647.16,-2242 4246.76,-2756.5 1721.3,-553.7 5320.1,-2036.6 5958.5,-2301 105.4,-824.7 877.5,-1111.2 1287.8,-1146.7 5,-0.4 10.1,-0.6 15.1,-0.6"
         style="fill:#390176;fill-opacity:1;fill-rule:nonzero;stroke:none"
         id="path84" /><path
         d="m 19950,23621.4 c -6139.3,0 -11035.71,-3653.5 -11035.71,-3653.5 -259,82.6 -500.98,32.1 -674.94,-36.5 -180.27,-71.1 -299.04,-250.4 -285.16,-443.7 69.82,-972.5 1367.24,-1523.4 1367.24,-1523.4 85.71,-792.9 2099.97,-1971.4 3898.67,-2550 1798.6,-578.6 5709.4,-2207.2 5709.4,-2207.2 48.2,-940.1 1070.5,-1028.5 1070.5,-1028.5 0,0 1022.3,88.4 1070.5,1028.5 0,0 3910.8,1628.6 5709.4,2207.2 1798.7,578.6 3813,1757.1 3898.7,2550 0,0 1297.4,550.9 1367.2,1523.4 13.9,193.3 -104.9,372.6 -285.1,443.7 -174,68.6 -416,119.1 -675,36.5 0,0 -4896.4,3653.5 -11035.7,3653.5 h -100"
         style="fill:#0fc3ed;fill-opacity:1;fill-rule:nonzero;stroke:none"
         id="path86" /><path
         d="m 22002.7,16215.5 -290.6,152.7 c -143,75.3 -310.2,-46.2 -282.9,-205.5 l 55.5,-323.5 c 10.8,-63.3 -10.1,-127.8 -56.1,-172.6 l -235,-229.1 c -115.8,-112.9 -51.9,-309.4 108,-332.7 l 324.9,-47.2 c 63.5,-9.2 118.4,-49.1 146.8,-106.6 l 145.3,-294.4 c 71.5,-144.9 278.2,-144.9 349.7,0 l 145.2,294.4 c 28.5,57.5 83.4,97.4 146.9,106.6 l 324.8,47.2 c 160,23.3 223.8,219.8 108.1,332.7 l -235.1,229.1 c -45.9,44.8 -66.9,109.3 -56,172.6 l 55.4,323.5 c 27.4,159.3 -139.8,280.8 -282.9,205.5 l -290.5,-152.7 c -56.8,-29.9 -124.7,-29.9 -181.5,0"
         style="fill:#ffffff;fill-opacity:1;fill-rule:nonzero;stroke:none"
         id="path88" /><path
         d="m 13292,17788.3 -290.6,152.7 c -143,75.3 -310.2,-46.2 -282.9,-205.5 l 55.5,-323.5 c 10.8,-63.3 -10.1,-127.8 -56.1,-172.6 l -235,-229.2 c -115.8,-112.8 -51.9,-309.3 108,-332.6 l 324.9,-47.2 c 63.5,-9.2 118.4,-49.1 146.8,-106.7 l 145.2,-294.3 c 71.6,-144.9 278.2,-144.9 349.8,0 l 145.2,294.3 c 28.4,57.6 83.3,97.5 146.9,106.7 l 324.8,47.2 c 159.9,23.3 223.8,219.8 108.1,332.6 l -235.1,229.2 c -45.9,44.8 -66.9,109.3 -56.1,172.6 l 55.5,323.5 c 27.3,159.3 -139.9,280.8 -282.9,205.5 l -290.5,-152.7 c -56.9,-29.9 -124.7,-29.9 -181.5,0"
         style="fill:#ffffff;fill-opacity:1;fill-rule:nonzero;stroke:none"
         id="path90" /><path
         d="m 28119.8,19217.2 -290.5,152.8 c -143.1,75.2 -310.3,-46.3 -282.9,-205.6 l 55.4,-323.5 c 10.9,-63.3 -10.1,-127.8 -56.1,-172.6 l -235,-229.1 c -115.7,-112.8 -51.9,-309.4 108.1,-332.6 l 324.8,-47.2 c 63.5,-9.3 118.4,-49.2 146.8,-106.7 l 145.3,-294.4 c 71.5,-144.9 278.2,-144.9 349.7,0 l 145.3,294.4 c 28.4,57.5 83.3,97.4 146.8,106.7 l 324.8,47.2 c 160,23.2 223.8,219.8 108.1,332.6 l -235,229.1 c -46,44.8 -67,109.3 -56.1,172.6 l 55.5,323.5 c 27.3,159.3 -139.9,280.8 -283,205.6 l -290.5,-152.8 c -56.8,-29.8 -124.7,-29.8 -181.5,0"
         style="fill:#ffffff;fill-opacity:1;fill-rule:nonzero;stroke:none"
         id="path92" /><path
         d="m 25085.5,16660.5 -221.1,-53.3 c -108.8,-26.2 -140.4,-165.8 -53.4,-236.2 l 176.7,-143.1 c 34.6,-28 53.1,-71.2 49.7,-115.5 l -17.7,-226.7 c -8.7,-111.6 114.3,-184.7 208.2,-123.8 l 190.7,123.9 c 37.3,24.2 84.1,28.5 125.1,11.5 l 210.1,-86.9 c 103.5,-42.7 211.1,51.7 182.1,159.8 l -58.8,219.6 c -11.5,43 -1.2,88.8 27.7,122.6 l 147.5,173 c 72.7,85.2 16.1,216.7 -95.7,222.5 l -227,11.9 c -44.4,2.4 -84.8,26.4 -108,64.3 l -119,193.8 c -58.5,95.4 -201.1,82.2 -241.2,-22.3 l -81.4,-212.2 c -16,-41.5 -51.3,-72.6 -94.5,-82.9"
         style="fill:#ffffff;fill-opacity:1;fill-rule:nonzero;stroke:none"
         id="path94" /><path
         d="m 11328.3,20369.4 -221,-53.2 c -108.9,-26.2 -140.4,-165.9 -53.4,-236.3 l 176.7,-143.1 c 34.5,-28 53.1,-71.2 49.6,-115.5 l -17.7,-226.6 c -8.7,-111.7 114.4,-184.8 208.2,-123.8 l 190.7,123.8 c 37.3,24.2 84.1,28.5 125.2,11.5 l 210.1,-86.8 c 103.5,-42.8 211,51.6 182.1,159.7 l -58.9,219.6 c -11.5,43 -1.1,88.8 27.7,122.6 l 147.6,173 c 72.6,85.2 16.1,216.7 -95.7,222.5 l -227,11.9 c -44.4,2.4 -84.8,26.4 -108.1,64.3 l -118.9,193.8 c -58.5,95.4 -201.1,82.2 -241.2,-22.3 l -81.5,-212.2 c -15.9,-41.5 -51.3,-72.5 -94.5,-82.9"
         style="fill:#ffffff;fill-opacity:1;fill-rule:nonzero;stroke:none"
         id="path96" /><path
         d="m 24721.5,19348.9 -221,-53.3 c -108.9,-26.2 -140.4,-165.8 -53.4,-236.2 l 176.7,-143.1 c 34.5,-28 53.1,-71.2 49.6,-115.5 l -17.7,-226.7 c -8.7,-111.6 114.4,-184.7 208.3,-123.7 l 190.6,123.8 c 37.3,24.2 84.1,28.5 125.2,11.5 l 210.1,-86.9 c 103.4,-42.7 211,51.7 182.1,159.8 l -58.9,219.6 c -11.5,43 -1.1,88.8 27.7,122.6 l 147.6,173 c 72.6,85.2 16.1,216.7 -95.7,222.5 l -227,11.9 c -44.4,2.4 -84.8,26.4 -108.1,64.3 l -118.9,193.8 c -58.6,95.4 -201.1,82.2 -241.2,-22.3 l -81.5,-212.2 c -15.9,-41.5 -51.3,-72.5 -94.5,-82.9"
         style="fill:#ffffff;fill-opacity:1;fill-rule:nonzero;stroke:none"
         id="path98" /><path
         d="m 16598.7,15507.2 -221.1,-53.2 c -108.8,-26.2 -140.4,-165.8 -53.4,-236.3 l 176.7,-143.1 c 34.6,-27.9 53.1,-71.1 49.7,-115.4 l -17.7,-226.7 c -8.7,-111.6 114.3,-184.8 208.2,-123.8 l 190.7,123.8 c 37.2,24.2 84,28.6 125.1,11.6 l 210.1,-86.9 c 103.5,-42.8 211.1,51.6 182.1,159.8 l -58.8,219.6 c -11.5,42.9 -1.2,88.8 27.7,122.6 l 147.5,173 c 72.7,85.1 16.1,216.6 -95.7,222.5 l -227,11.9 c -44.4,2.3 -84.8,26.3 -108.1,64.2 l -118.9,193.8 c -58.5,95.4 -201.1,82.3 -241.2,-22.2 l -81.5,-212.3 c -15.9,-41.5 -51.2,-72.5 -94.4,-82.9"
         style="fill:#ffffff;fill-opacity:1;fill-rule:nonzero;stroke:none"
         id="path100" /><path
         d="m 23886.7,18163.3 c -46.9,0 -94.8,0.6 -143.8,1.9 0,0 -7.1,6.5 -21.6,18.3 14.3,4.9 21.6,7.6 21.6,7.6 0,0 -244.8,214.4 -817.5,432.6 548.9,72 1154.9,159.9 1727.1,260.5 15.7,-24.4 23.3,-53.7 20.9,-83.4 l -17.7,-226.7 c -6.5,-83.7 61.2,-145.8 135,-145.8 24.6,0 49.8,6.8 73.3,22.1 l 190.6,123.8 c 22.2,14.4 47.8,21.8 73.6,21.8 17.5,0 35,-3.4 51.6,-10.3 l 210.1,-86.9 c 15,-6.2 30.2,-9.5 45,-10.3 -282.7,-154.9 -770.5,-325.2 -1548.2,-325.2 m -7612.8,22.2 c -28.3,2.5 -2974.1,275.7 -3971.9,2017.4 62,85.2 5.6,208.3 -102.5,213.9 l -6.8,0.4 c -119.7,266.5 -195.5,564.1 -213,896.4 13.7,-22.5 27.6,-45 41.6,-67.3 704.5,-1118.9 2067.8,-2328.2 4702,-2773.5 -323.1,-156.5 -466.2,-281.7 -466.2,-281.7 5.7,-2 11.1,-3.8 16.8,-5.6 m 10991,185.3 c -302.4,4.8 -672.8,64.6 -1121.6,218.9 -81.9,28.2 -166.9,42 -251.5,42 -114.3,0 -228,-25.2 -332.6,-74.7 16.6,28.9 22.7,64.5 12.8,101.6 l -58.9,219.6 c -11.5,43 -1.1,88.8 27.7,122.6 l 61.5,72.1 c 69.4,15.8 137.3,31.8 203.1,48.1 40.3,9.9 80.9,14.8 121.4,14.8 87.7,0 174,-23.1 251.2,-68.2 253.1,-148 699,-380.3 1229.4,-534.2 l -96.7,-94.2 c -21.1,-20.6 -36.2,-43.9 -45.8,-68.4"
         style="fill:#1c88c9;fill-opacity:1;fill-rule:nonzero;stroke:none"
         id="path102" /><path
         d="m 27304.6,18370.5 c -13.1,0 -26.4,0.1 -39.7,0.3 9.6,24.5 24.7,47.8 45.8,68.4 l 96.7,94.2 c 134.5,-39 274.5,-73 418.1,-99.3 -143.2,-38.1 -315.8,-63.6 -520.9,-63.6"
         style="fill:#c3b2d6;fill-opacity:1;fill-rule:nonzero;stroke:none"
         id="path104" /><path
         d="m 12302,20202.9 c -39.5,69 -76.1,140.6 -109.3,214.3 l 6.8,-0.4 c 108.1,-5.6 164.5,-128.7 102.5,-213.9"
         style="fill:#c3b2d6;fill-opacity:1;fill-rule:nonzero;stroke:none"
         id="path106" /><path
         d="m 24790.7,18428.3 c -73.8,0 -141.5,62.1 -135,145.8 l 17.7,226.7 c 2.4,29.7 -5.2,59 -20.9,83.4 334.1,58.8 656.6,121.8 949.8,188.7 l -61.5,-72.1 c -28.8,-33.8 -39.2,-79.6 -27.7,-122.6 l 58.9,-219.6 c 9.9,-37.1 3.8,-72.7 -12.8,-101.6 -22.8,-10.8 -45.2,-22.7 -67.1,-35.8 -18.1,-10.8 -37.1,-21.7 -57.2,-32.7 -14.8,0.8 -30,4.1 -45,10.3 l -210.1,86.9 c -16.6,6.9 -34.1,10.3 -51.6,10.3 -25.8,0 -51.4,-7.4 -73.6,-21.8 l -190.6,-123.8 c -23.5,-15.3 -48.7,-22.1 -73.3,-22.1"
         style="fill:#c3b2d6;fill-opacity:1;fill-rule:nonzero;stroke:none"
         id="path108" /><path
         d="m 20000.4,12354.6 c -118.1,14.5 -858.9,134.5 -896.2,861.5 -3.4,67.3 -45.2,126.7 -107.5,152.6 -39.1,16.3 -3938.1,1638 -5723.1,2212.2 -1907.8,613.7 -3708.62,1758.6 -3778.19,2402.2 -6.79,63 -47.23,117.5 -105.57,142.3 -11.82,5 -1199.85,521.9 -1261.09,1374.8 -8.2,114.2 63.68,224.5 174.81,268.4 31.18,12.3 62.15,22.9 92.89,31.8 208.22,-415.7 624.28,-716.1 908.65,-883.6 160.62,-94.6 289.72,-232.7 376.43,-397.7 374.57,-712.8 1955.87,-1627.5 3458.97,-2153.2 l 67.3,-136.5 c 35.8,-72.5 105.4,-108.7 174.9,-108.7 69,0 137.9,35.6 173.9,106.9 742.5,-246.3 1796.3,-641.3 2783.3,-1022.5 l 161,-130.5 c 34.6,-27.9 53.1,-71.1 49.7,-115.4 l -17.7,-226.7 c -6.6,-83.8 61.1,-145.9 135,-145.9 24.5,0 49.8,6.9 73.2,22.1 l 190.7,123.8 c 22.2,14.5 47.8,21.8 73.5,21.8 17.5,0 35,-3.4 51.6,-10.2 l 210.1,-86.9 c 17.5,-7.2 35.1,-10.5 52.1,-10.5 68.9,0 128.7,54.3 134.4,123.6 377.5,-148.8 715,-283.1 981.7,-389.8 317.5,-127 577.6,-367.6 723.9,-676.8 245.1,-517.9 840.9,-575.1 840.9,-575.1 0,0 595.7,57.2 840.9,575.1 146.3,309.2 406.4,549.8 723.9,676.8 135,54 288,115 455.2,181.5 23.4,-9.4 48.4,-14.1 73.4,-14.1 69.6,0 139.1,36.2 174.9,108.7 l 2.3,4.8 c 814.1,322.2 1879,737.7 2830.2,1089.8 16.8,-7.3 35.2,-11.3 53.9,-11.3 24.5,0 49.8,6.8 73.2,22 l 127.9,83.1 c 55.2,20.2 109.9,40.1 163.9,59.7 8.2,-1.7 16.2,-4.1 24,-7.4 l 210.1,-86.9 c 17.5,-7.2 35.1,-10.5 52.1,-10.5 83.8,0 154.1,80.4 130,170.3 l -20.4,76.2 c 251.5,88.7 483.6,167.8 686.7,233.1 1591.3,511.8 3355.9,1506 3728,2262.6 74.8,152.1 195.8,276.8 342.5,361.8 284.5,164.7 717.2,469.8 930.9,896.5 30.7,-8.9 61.7,-19.5 92.9,-31.8 111.1,-43.9 183,-154.2 174.8,-268.4 -61.3,-852.9 -1249.3,-1369.8 -1261.3,-1374.9 -58.2,-24.9 -98.6,-79.3 -105.4,-142.2 -69.6,-643.6 -1870.4,-1788.5 -3778.3,-2402.2 -1784.9,-574.2 -5683.9,-2195.9 -5723.1,-2212.2 -62.2,-25.9 -104,-85.3 -107.5,-152.6 -37.4,-730.7 -774.7,-847.3 -895.3,-861.5"
         style="fill:#1c88c9;fill-opacity:1;fill-rule:nonzero;stroke:none"
         id="path110" /><path
         d="m 22093.4,14547.9 c -25,0 -50,4.7 -73.4,14.1 80.3,31.9 164.2,65.1 250.6,99.4 l -2.3,-4.8 c -35.8,-72.5 -105.3,-108.7 -174.9,-108.7"
         style="fill:#c3b2d6;fill-opacity:1;fill-rule:nonzero;stroke:none"
         id="path112" /><path
         d="m 13382.7,16120.7 c -69.5,0 -139.1,36.2 -174.9,108.7 l -67.3,136.5 c 86.1,-30.1 172,-59 257.3,-86.4 51.2,-16.5 104.2,-33.8 158.8,-51.9 -36,-71.3 -104.9,-106.9 -173.9,-106.9"
         style="fill:#c3b2d6;fill-opacity:1;fill-rule:nonzero;stroke:none"
         id="path114" /><path
         d="m 25154.7,15739.9 c -18.7,0 -37.1,4 -53.9,11.3 86.1,31.8 171.1,63.1 255,93.8 l -127.9,-83.1 c -23.4,-15.2 -48.7,-22 -73.2,-22 m 651.2,60 c -17,0 -34.6,3.3 -52.1,10.5 l -210.1,86.9 c -7.8,3.3 -15.8,5.7 -24,7.4 136.1,49.4 268.5,96.8 395.8,141.7 l 20.4,-76.2 c 24.1,-89.9 -46.2,-170.3 -130,-170.3"
         style="fill:#c3b2d6;fill-opacity:1;fill-rule:nonzero;stroke:none"
         id="path116" /><path
         d="m 16667.9,14586.6 c -73.9,0 -141.6,62.1 -135,145.9 l 17.7,226.7 c 3.4,44.3 -15.1,87.5 -49.7,115.4 l -161,130.5 c 389.3,-150.4 768.2,-298.7 1113.6,-434.8 -5.7,-69.3 -65.5,-123.6 -134.4,-123.6 -17,0 -34.6,3.3 -52.1,10.5 l -210.1,86.9 c -16.6,6.8 -34.1,10.2 -51.6,10.2 -25.7,0 -51.3,-7.3 -73.5,-21.8 l -190.7,-123.8 c -23.4,-15.2 -48.7,-22.1 -73.2,-22.1"
         style="fill:#c3b2d6;fill-opacity:1;fill-rule:nonzero;stroke:none"
         id="path118" /><path
         d="m 21243.2,13178.4 c 5.4,31.6 4.8,51.2 4.5,75.9 -1,23.6 -3.3,46.8 -7.5,69.9 -7.8,46.2 -22.2,91.8 -41,135.8 -19.9,43.8 -45.2,86.2 -77.2,123.2 -31.5,37.3 -72.3,68 -116,87.2 -17.3,7.6 -37.5,-0.2 -45.1,-17.5 -2.2,-5 -3.1,-10.3 -2.8,-15.4 l 0.2,-4.3 c 2.3,-43.2 0.2,-80.1 -3.3,-115.1 -4.9,-35.5 -9.9,-68.2 -17.4,-100.9 -6.8,-32.5 -15,-64.3 -22,-95.5 l -10.7,-46.2 c -2.5,-13.9 -6.7,-33 -7,-39.6 l -0.8,-21.5 c -3.6,-96.3 71.5,-177.2 167.7,-180.7 88.4,-3.3 163.9,59.8 178.4,144.7"
         style="fill:#390176;fill-opacity:1;fill-rule:nonzero;stroke:none"
         id="path120" /><path
         d="m 30592.2,18116.5 c 7.2,3.4 -1.7,-1.5 -4.2,-3 l -14.9,-7.8 c -10.6,-5.5 -22.5,-10.8 -34.6,-16.2 -24.9,-10 -50.7,-21.5 -78,-31.1 -54.2,-20.6 -111.5,-39.8 -170.4,-57.4 -58.8,-18.7 -119.4,-33.8 -180.5,-53.1 -61.3,-18 -123.5,-38.2 -186.7,-63.7 l -0.6,-0.2 c -20.7,-8.4 -30.7,-31.9 -22.3,-52.5 4.4,-11 13.3,-19 23.6,-22.9 64.9,-23.6 130.9,-39.8 197.6,-50.4 66.9,-10.4 134.1,-15.4 202.5,-16.9 68.3,-1.8 137.6,0.7 208.3,8.9 35.2,4.6 71.3,10 107.7,18.9 18.4,4.5 36.9,9.2 56.2,15.2 9.5,2.9 20,6.4 29.9,10.1 12,5.1 17.9,6.6 39.1,17.7 84.1,47.7 113.6,154.5 65.9,238.6 -47.7,84 -154.6,113.5 -238.6,65.8"
         style="fill:#390176;fill-opacity:1;fill-rule:nonzero;stroke:none"
         id="path122" /><path
         d="m 19102.1,13235.9 c -0.3,6.7 -4.5,25.7 -7,39.6 l -10.7,46.2 c -7,31.2 -15.2,63 -22,95.5 -7.5,32.7 -12.5,65.4 -17.4,100.9 -3.5,35 -5.6,71.9 -3.3,115.1 l 0.2,4.1 c 1,18.9 -13.4,35 -32.3,36 -5.5,0.3 -10.9,-0.8 -15.6,-2.9 -43.7,-19.2 -84.5,-49.9 -116,-87.2 -32,-37 -57.3,-79.4 -77.2,-123.2 -18.8,-44 -33.2,-89.6 -41,-135.8 -4.2,-23.1 -6.5,-46.3 -7.5,-69.9 -0.3,-24.7 -0.9,-44.3 4.5,-75.9 16.3,-94.9 106.5,-158.6 201.4,-142.3 87.1,14.9 148,92.2 144.7,178.2 l -0.8,21.6"
         style="fill:#390176;fill-opacity:1;fill-rule:nonzero;stroke:none"
         id="path124" /><path
         d="m 9235.06,17812.1 c 21.29,-11 27.1,-12.6 39.18,-17.7 9.84,-3.7 20.34,-7.2 29.81,-10.1 19.34,-6 37.84,-10.7 56.25,-15.2 36.38,-8.9 72.46,-14.3 107.67,-18.9 70.78,-8.2 139.99,-10.7 208.3,-8.9 68.41,1.6 135.67,6.5 202.51,16.9 66.68,10.6 132.72,26.8 197.62,50.4 21,7.7 31.8,30.8 24.1,51.8 -4,11.1 -12.5,19.4 -22.6,23.5 l -0.8,0.3 c -63.2,25.5 -125.39,45.7 -186.74,63.7 -61.09,19.3 -121.71,34.4 -180.42,53.1 -58.91,17.6 -116.29,36.8 -170.44,57.4 -27.29,9.6 -53.12,21.1 -78.03,31.1 -12.08,5.4 -24.02,10.7 -34.61,16.2 l -14.82,7.8 c -2.54,1.5 -11.41,6.4 -4.23,3 -84.06,47.7 -190.87,18.2 -238.57,-65.8 -47.71,-84.1 -18.24,-190.9 65.82,-238.6"
         style="fill:#390176;fill-opacity:1;fill-rule:nonzero;stroke:none"
         id="path126" /><path
         d="m 20000,12003.6 c 5,0 10.1,0.2 15.1,0.6 388,33.6 1117.1,304.1 1220,1081.8 615.2,254.6 3984.6,1642.6 5598.4,2161.7 1504.3,483.9 3752.3,1623.5 4000.4,2595.5 308.7,149.8 1320.2,709 1386.5,1631.9 19,265.2 -143.6,519.7 -395.5,619.1 -237.6,93.7 -479.2,115.5 -704.4,64.4 -289.1,205.5 -1457,1006 -3177.5,1795.1 -1832.8,840.6 -4690.1,1842.7 -7893,1842.7 v -350 c 3136.1,0 5939.3,-982.6 7738.6,-1806.9 1954.3,-895.3 3180.3,-1802.9 3192.5,-1811.9 45.2,-33.8 103.9,-43.7 157.8,-26.5 174.2,55.6 361.8,44.7 557.6,-32.5 111.1,-43.9 183,-154.2 174.8,-268.4 -61.3,-852.9 -1249.3,-1369.8 -1261.3,-1374.9 -58.2,-24.9 -98.6,-79.3 -105.4,-142.2 -69.6,-643.6 -1870.4,-1788.5 -3778.3,-2402.2 -1784.9,-574.2 -5683.9,-2195.9 -5723.1,-2212.2 -62.2,-25.9 -104,-85.3 -107.5,-152.6 -37.4,-730.7 -774.7,-847.3 -895.3,-861.5 -118.1,14.5 -858.9,134.5 -896.2,861.5 -3.4,67.3 -45.2,126.7 -107.5,152.6 -39.1,16.3 -3938.1,1638 -5723.1,2212.2 -1907.8,613.7 -3708.62,1758.6 -3778.19,2402.2 -6.79,63 -47.23,117.5 -105.57,142.3 -11.82,5 -1199.85,521.9 -1261.09,1374.8 -8.2,114.2 63.68,224.5 174.81,268.4 195.8,77.2 383.4,88.2 557.52,32.5 53.9,-17.2 112.6,-7.2 157.86,26.5 12.16,9 1238.26,916.6 3192.46,1811.9 1799.3,824.3 4602.5,1806.9 7738.6,1806.9 v 350 c -3202.9,0 -6060.2,-1002.1 -7893,-1842.7 -1720.5,-789.1 -2888.41,-1589.6 -3177.52,-1795.1 -225.14,51.1 -466.69,29.3 -704.34,-64.4 -251.9,-99.4 -414.5,-353.9 -395.51,-619.1 66.26,-922.9 1077.78,-1482.1 1386.48,-1631.9 248.14,-972 2496.09,-2111.6 4000.39,-2595.5 1613.8,-519.1 4983.2,-1907.1 5598.4,-2161.7 102.9,-777.7 832,-1048.2 1220,-1081.8 5,-0.4 10.1,-0.6 15.1,-0.6"
         style="fill:#390176;fill-opacity:1;fill-rule:nonzero;stroke:none"
         id="path128" /><path
         d="m 21014.5,18580 c 0,0 3018,284.5 4749,711 0,0 0.5,0 1.5,0.5 170.5,41.5 350,15.5 501.5,-73 331.5,-194 986.5,-527 1721.5,-634 167.5,-24 327,48.5 422,175.5 44,57.5 74.5,126 86.5,201.5 82,511.5 205.5,1453 216,2538.5 0,0 2183,8497 -6402.5,10510.5 C 20182.5,32509 17943.5,32321 15966,31391 14724.5,30807.5 13444.5,29873 12528.5,28378.5 12367,28115 12219,27839 12087,27553 c -1866.5,-4033.5 -618,-9958.5 8927.5,-8973"
         style="fill:#bcbcd3;fill-opacity:1;fill-rule:nonzero;stroke:none"
         id="path130" /><path
         d="m 26725,26342.9 c 0,0 176.8,-835.8 -348.2,-1971.5 0,0 -1644.7,150 -1317.9,2153.6 0,0 755.4,80.4 1666.1,-182.1"
         style="fill:#ffffff;fill-opacity:1;fill-rule:nonzero;stroke:none"
         id="path132" /><path
         d="m 27370.3,19669 c 0,0 -402.1,-394.9 -1174.6,-26.6 0,0 293.6,513 -86.8,1011.2 0,0 910.2,-99.5 1261.4,-984.6"
         style="fill:#ffffff;fill-opacity:1;fill-rule:nonzero;stroke:none"
         id="path134" /><path
         d="m 20459,22702.9 c 0,-949.2 454.8,-1718.6 1015.8,-1718.6 561,0 1015.8,769.4 1015.8,1718.6 0,949.1 -454.8,1718.5 -1015.8,1718.5 -561,0 -1015.8,-769.4 -1015.8,-1718.5"
         style="fill:#ffffff;fill-opacity:1;fill-rule:nonzero;stroke:none"
         id="path136" /><path
         d="m 21756.5,21051.8 c 0,0 -646.3,-1637.1 414.7,-2346.3 0,0 2856.3,346.9 3592.4,585.4 0,0 1199.5,695.5 49.2,1693.4 0,0 -806.9,728.1 -4056.3,67.5"
         style="fill:#ffffff;fill-opacity:1;fill-rule:nonzero;stroke:none"
         id="path138" /><path
         d="m 17911.1,20395.7 c -2061.2,0 -2939.7,798.9 -2939.7,798.9 647.6,-170.4 1261.3,-254.2 1821.1,-282.9 49.4,-2.5 98.4,-3.7 147.2,-3.7 1464.3,0 2708.8,1120.6 2841.1,2594.5 154.4,1720.3 814.2,2746.4 1172,3186.4 228,-243.8 326.7,-431.8 326.7,-431.8 l 203.1,354.1 c 0,0 -237.2,417.7 -912.9,858.3 -354.2,250.3 -709.4,417.4 -1054.8,522 -312,114.8 -632.3,160.2 -944.2,160.2 -203.5,0 -403.3,-19.3 -594.7,-51.3 -967,-138 -1643.9,-600.4 -1643.9,-600.4 217.9,456.4 1590.6,1836.7 3896.2,1836.7 75.9,0 152.8,-1.5 230.7,-4.6 2295,-90.5 3102.6,-1299.1 3102.6,-1299.1 104,-14.6 245.1,-19.5 389,-19.5 304.5,0 620.8,22.2 620.8,22.2 -1269.4,-267.2 -1571.8,-621.9 -1637.9,-814.6 -33.4,-97.6 -126.1,-162 -229.3,-163.7 -7.3,-0.2 -14.6,-0.2 -21.9,-0.2 -246.8,0 -462.7,67.8 -462.7,67.8 l -80.3,-513.8 c -611.8,-815.8 -942.9,-1621 -1102.3,-2357.2 -341.8,-276.7 -578,-867.3 -578,-1551.1 0,-856.1 370,-1566 854.1,-1697 24,-55.4 38.7,-84.5 38.7,-84.5 l -626.8,-109.9 c -1112.9,-304.8 -2045.5,-415.8 -2813.9,-415.8"
         style="fill:#9484b7;fill-opacity:1;fill-rule:nonzero;stroke:none"
         id="path140" /><path
         d="m 21313.1,21005.9 c -484.1,131 -854.1,840.9 -854.1,1697 0,683.8 236.2,1274.4 578,1551.1 -351.9,-1624.5 131.5,-2914.1 276.1,-3248.1"
         style="fill:#c3b2d6;fill-opacity:1;fill-rule:nonzero;stroke:none"
         id="path142" /><path
         d="m 26376.8,24371.4 v 0 0 c 143.1,309.5 234,596.7 290.6,850.8 -52.8,-279.5 -142.1,-577.6 -290.6,-850.8 m 348.2,1971.5 c -564.9,162.8 -1070,193.7 -1372.2,193.7 -184.9,0 -293.9,-11.6 -293.9,-11.6 0,0 116.8,13.8 314.6,13.8 302.9,0 795.8,-32.3 1351.5,-195.9"
         style="fill:#9484b7;fill-opacity:1;fill-rule:nonzero;stroke:none"
         id="path144" /><path
         d="m 26376.8,24371.4 v 0 l -40,1259.7 c -6.8,216.3 -134.7,410.1 -330.9,501.2 -220.7,102.3 -546.1,244.3 -947,392.7 v 0 c 0,0 109,11.6 293.9,11.6 302.2,0 807.3,-30.9 1372.2,-193.7 v 0 c 0,0 56.3,-517.6 -57.6,-1120.7 -56.6,-254.1 -147.5,-541.3 -290.6,-850.8"
         style="fill:#c3b2d6;fill-opacity:1;fill-rule:nonzero;stroke:none"
         id="path146" /><path
         d="m 28051.7,18755.1 c -12.8,0 -25.7,0.9 -38.8,2.8 -707.8,102.8 -1342.8,427.4 -1658.3,611.8 -91.7,53.6 -191,89 -293.3,105.5 48.9,45.1 97,99.8 138.2,165.4 188.1,-89.2 354.1,-133.1 497.6,-148.6 6.1,-6.3 12.7,-12.4 19.7,-18 222.2,-179.4 731.4,-542.2 1351.8,-670.3 -2.5,-16.5 -4.9,-32.6 -7.4,-48.4 -3.1,-0.1 -6.3,-0.2 -9.5,-0.2 M 27475,19393 c 0,0 -94.9,85.9 -223.2,194.8 59,31.6 96.2,61.5 111,74.5 41.1,-82.8 78.8,-172.4 112.2,-269.3"
         style="fill:#9484b7;fill-opacity:1;fill-rule:nonzero;stroke:none"
         id="path148" /><path
         d="m 26697.1,19492 c -143.5,15.5 -309.5,59.4 -497.6,148.6 33.9,53.9 63.1,115 84.4,184.3 53.5,134.6 70.5,293.3 14.5,474.9 -27.4,137.4 -75.7,250.6 -131.6,342.8 193.6,-43.1 827.8,-237 1196,-980.3 -14.8,-13 -52,-42.9 -111,-74.5 -82.9,70.4 -179.7,150.3 -273.8,222.9 -38.8,29.9 -83.8,43.8 -128,43.8 -89,0 -175,-56.3 -201.2,-151.3 -0.6,-2 -1.2,-4 -1.7,-6 -21.1,-73.3 -1.7,-151.2 50,-205.2"
         style="fill:#c3b2d6;fill-opacity:1;fill-rule:nonzero;stroke:none"
         id="path150" /><path
         d="m 21771.3,21491.5 c -99.9,0 -576.7,30.6 -682,606.8 -117.9,644.6 289.3,714.2 289.3,714.2 0,0 -471.5,369.6 -235.7,953.6 170.1,421.5 461,480.1 609.6,480.1 57.3,0 93.5,-8.7 93.5,-8.7 0,0 -644.2,-916.1 287.9,-1173.2 l -72.3,-637.5 c 0,0 -733.9,-21.4 -271.9,-934.8 0,0 -6.5,-0.5 -18.4,-0.5"
         style="fill:#c3b2d6;fill-opacity:1;fill-rule:nonzero;stroke:none"
         id="path152" /><path
         d="m 17382.1,18732.6 c -2907.9,333.6 -4350.1,1565.4 -5064.6,2700.2 -1024.4,1627 -945.2,3666.4 -341.5,5373.8 -706.4,-5664.9 2395.4,-6801.9 4038.5,-7356.4 286,-96.5 584.6,-146.1 883.6,-146.1 229.8,0 459.7,29.3 683.9,89.2 820.2,218.9 1899.1,278.5 3015.9,278.5 328.4,0 659.9,-5.1 989.2,-12.9 41.1,-257.3 137,-511.6 322.7,-724.6 -601.3,132.5 -1141.7,160.7 -1492.9,160.7 -260.5,0 -416.9,-15.5 -416.9,-15.5 v 0 0 c 0,0 -156.3,15.5 -416.9,15.5 -485.3,0 -1331.9,-53.9 -2201,-362.4 m 8650.7,746.7 c -8.8,1.1 -17.7,2.1 -26.6,2.9 120.3,118.2 248.9,287.5 291.1,497.3 -13.2,-113.1 -43.9,-205.8 -68,-265.2 -55.5,-93.3 -126.6,-171.9 -196.5,-235 m 132.8,1165.2 c -18.9,3.6 -33.5,5.9 -43.2,7.3 -75.6,106.4 -177,217.4 -309.6,332.5 0.1,0.1 0.2,0.2 0.2,0.2 0,0 203,-94.5 352.6,-340"
         style="fill:#9484b7;fill-opacity:1;fill-rule:nonzero;stroke:none"
         id="path154" /><path
         d="m 26229.3,19714.3 c 24.1,59.4 54.8,152.1 68,265.2 26.8,133.5 18.8,283.4 -48.6,447.1 20.6,-43.5 37,-85.7 49.7,-126.8 6.4,-32.1 11.7,-65.5 15.6,-100.3 16.3,-145.2 2.3,-269.3 -30.1,-374.6 -15.4,-38.9 -34,-75.8 -54.6,-110.6 m -62.5,928.3 c -19.3,4.3 -34.2,7.1 -44.1,8.7 -0.1,0.2 -0.2,0.3 -0.3,0.5 9.7,-1.4 24.3,-3.7 43.2,-7.3 0.4,-0.6 0.8,-1.3 1.2,-1.9"
         style="fill:#c3b2d6;fill-opacity:1;fill-rule:nonzero;stroke:none"
         id="path156" /><path
         d="m 22141.5,18878.6 c -78,20.3 -155.4,38.9 -231.7,55.7 -185.7,213 -281.6,467.3 -322.7,724.6 473.5,-11.2 942.4,-27.9 1389.4,-42.4 47.4,-1.5 93.9,-2.3 139.9,-2.3 1952.8,0.1 2684.6,1348 2696.5,1370 132.5,-115 233.9,-226 309.5,-332.4 0.1,-0.2 0.2,-0.3 0.3,-0.5 -9,1.6 -13.7,2.2 -13.7,2.2 59.4,-78.8 105.4,-154.5 139.7,-226.9 67.4,-163.7 75.4,-313.6 48.6,-447.1 -42.2,-209.8 -170.8,-379.1 -291.1,-497.3 -26.2,2.5 -52.6,3.7 -79,3.7 -68.5,0 -137.4,-8.3 -205.5,-25.1 -1033.3,-254.6 -2546.6,-459.9 -3580.2,-582.2"
         style="fill:#c3b2d6;fill-opacity:1;fill-rule:nonzero;stroke:none"
         id="path158" /><path
         d="m 26061.3,19475.2 c -9.5,1.5 -19,2.9 -28.5,4.1 69.9,63.1 141,141.7 196.5,235 -18.7,-45.9 -33.6,-71.9 -33.6,-71.9 1.3,-0.6 2.5,-1.2 3.8,-1.8 -41.2,-65.6 -89.3,-120.3 -138.2,-165.4"
         style="fill:#795ca3;fill-opacity:1;fill-rule:nonzero;stroke:none"
         id="path160" /><path
         d="m 26199.5,19640.6 c -1.3,0.6 -2.5,1.2 -3.8,1.8 0,0 14.9,26 33.6,71.9 20.6,34.8 39.2,71.7 54.6,110.6 -21.3,-69.3 -50.5,-130.4 -84.4,-184.3 m 98.9,659.2 c -12.7,41.1 -29.1,83.3 -49.7,126.8 -29.7,72.3 -71.1,147.4 -126,224.7 9.9,-1.6 24.8,-4.4 44.1,-8.7 55.9,-92.2 104.2,-205.4 131.6,-342.8"
         style="fill:#997db9;fill-opacity:1;fill-rule:nonzero;stroke:none"
         id="path162" /><path
         d="m 26248.7,20426.6 c -34.3,72.4 -80.3,148.1 -139.7,226.9 0,0 4.7,-0.6 13.7,-2.2 54.9,-77.3 96.3,-152.4 126,-224.7"
         style="fill:#997db9;fill-opacity:1;fill-rule:nonzero;stroke:none"
         id="path164" /><path
         d="m 20952.8,26688.9 c -420.7,450 -1282.5,1090.3 -2778.6,1090.3 -531.2,0 -1142.1,-80.6 -1842.1,-279.2 0,0 724.7,446.5 1643.9,600.4 169.7,24.2 348.1,38.4 533.5,38.4 318.5,0 657,-41.9 1005.4,-147.3 1.6,-0.6 3.3,-1.2 4.9,-1.8 430.7,-159.7 776.3,-341.9 1049.9,-520.2 206.3,-145.9 412.2,-320 616,-526.6 0,0 -93.5,-82.5 -232.9,-254"
         style="fill:#ebebf2;fill-opacity:1;fill-rule:nonzero;stroke:none"
         id="path166" /><path
         d="m 21279.5,26257.1 c 0,0 -98.7,188 -326.7,431.8 139.4,171.5 232.9,254 232.9,254 -203.8,206.6 -409.7,380.7 -616,526.6 675.7,-440.6 912.9,-858.3 912.9,-858.3 l -203.1,-354.1 m -1764.6,1734.4 c -348.4,105.4 -686.9,147.3 -1005.4,147.3 -185.4,0 -363.8,-14.2 -533.5,-38.4 191.4,32 391.2,51.3 594.7,51.3 311.9,0 632.2,-45.4 944.2,-160.2"
         style="fill:#dfdae9;fill-opacity:1;fill-rule:nonzero;stroke:none"
         id="path168" /><path
         d="m 27257.8,24210 c -61.5,0 -122.7,53.9 -104.3,129.8 124.5,512.2 361.5,1681.8 64.4,2158.4 -303.7,487.1 -1632.9,575.8 -2185.1,591.5 -108.3,3.1 -141.3,148.1 -44.9,197.7 130.3,67.1 345.6,125.8 699.6,125.8 151.3,0 327.8,-10.7 533.9,-36 1334,-163.8 1591.1,-437 1494.7,-1851.3 0,0 0,-691.1 -369.7,-1261.6 0,0 -0.3,-0.6 -0.9,-1.7 -20.9,-36.8 -54.4,-52.6 -87.7,-52.6"
         style="fill:#ebebf2;fill-opacity:1;fill-rule:nonzero;stroke:none"
         id="path170" /><path
         d="m 28174,18784.5 c -35.5,5.6 -70.6,12.1 -105.4,19.2 80.4,533.3 184.3,1404.7 193.9,2396.3 0,0 1380.1,5372.8 -2371.4,8586.1 -59,50.5 -134.2,77.6 -211.6,77.6 -5,0 -10,-0.1 -15,-0.3 -9.2,-0.5 -18.6,-0.7 -28.2,-0.7 -205.1,0 -505,94.9 -807.8,269.7 -360.4,208.1 -621.2,469.5 -682.1,662.1 -29,91.7 -93.3,167.3 -180.6,207.4 -617.6,283.3 -1316.1,523.4 -2105.8,708.6 -761.3,178.4 -1537.2,268.9 -2310,268.9 -738,0 -1473.3,-82.5 -2191.3,-249.7 852.8,247.6 1746.1,372.8 2649.8,372.8 752.8,0 1512.9,-87 2261.7,-262.6 2490.8,-584.1 4299,-1779.7 5374.1,-3553.5 1824.4,-3010 908.2,-6705.9 898.7,-6742.9 -3.5,-13.6 -5.4,-27.7 -5.5,-41.8 -10.7,-1092.6 -138.7,-2043.2 -214,-2512.6 -14.7,-91.3 -72.8,-165.7 -149.5,-204.6"
         style="fill:#ebebf2;fill-opacity:1;fill-rule:nonzero;stroke:none"
         id="path172" /><path
         d="m 28061.2,18755.3 c 2.5,15.8 4.9,31.9 7.4,48.4 34.8,-7.1 69.9,-13.6 105.4,-19.2 -34.6,-17.5 -72.9,-27.8 -112.8,-29.2"
         style="fill:#dfdae9;fill-opacity:1;fill-rule:nonzero;stroke:none"
         id="path174" /><path
         d="m 25954,19179.5 c 23.4,14.3 36.7,23.8 53.9,36 16.1,11.6 31.7,23.5 47,35.6 30.6,24.2 59.4,50.1 87.8,76.7 56,54 107.7,113.2 153.4,178.2 91.2,129.5 158.7,285.6 177.3,451.2 9,82.5 7.9,165.8 -3.1,246.9 -13,80.1 -30.9,159.7 -59.8,233 -54.4,148.7 -133.3,281.3 -222.4,400.7 l -68.9,87.4 c -23.2,29 -50.8,57.8 -76.2,86.6 -27.6,27.4 -55.4,54.9 -84.4,81.1 -30.4,24.8 -59.2,51.6 -91.4,74.1 -126,93.9 -267.2,164.4 -410.2,214.6 -287.8,100.2 -578.9,130.2 -862.3,139.6 -284.4,9.5 -563.8,-5 -841.2,-26.5 -277.3,-22.2 -552.4,-52.8 -825.7,-90.7 -546.9,-74.5 -1088.6,-167.1 -1628.8,-265 -539.7,-99.8 -1077.1,-207.9 -1613.8,-317.9 l -201.2,-41.4 -100.5,-20.8 -95.1,-17.6 c -130.4,-22.9 -263.2,-41.8 -396,-58.3 -265.7,-33.8 -533.4,-55.9 -801,-67 -534.6,-19.4 -1072.4,3.4 -1591.2,106.8 -259.1,52.6 -511.6,123.7 -761.4,204.1 -250.5,81 -493.4,179.8 -746.5,294.1 l -0.5,0.2 c -17.3,7.8 -37.8,0.1 -45.6,-17.3 -5.5,-12.1 -3.3,-25.8 4.4,-35.6 177.3,-224.1 416.9,-393.7 671.1,-522.6 255.5,-129.6 530.8,-211.1 807.2,-269.4 553.9,-118.1 1116.9,-148.9 1674.8,-136.5 279.2,7.8 557.6,26.7 835,58.5 138.8,16.4 276.9,35.3 416.1,58.9 l 106.7,19.3 100.6,20.2 200.9,40.2 c 535.7,107.2 1071.9,210.3 1608.3,308.6 536.2,98.7 1073.1,191.8 1610.2,266.3 268.6,37 537,71.3 804.9,95.1 267.6,23.6 535.4,40.1 798.1,33.9 261.9,-6.6 522.5,-29.1 754.1,-105.4 115.7,-37.8 222.8,-89.1 317.8,-156.5 96.6,-67.1 175.3,-150.7 254.4,-251.7 152.7,-194.9 255.7,-419.9 234,-634.6 -9.4,-107.1 -48.1,-212.1 -110.6,-308.2 -31.2,-48 -68.2,-93.7 -109.2,-136.2 -20.8,-20.9 -42.1,-41.6 -64.5,-60.6 -11.2,-9.5 -22.5,-18.8 -33.8,-27.5 -10.3,-8.1 -24.8,-18.6 -30.5,-22.4 l -6.7,-4.7 c -68.9,-47.2 -86.5,-141.3 -39.3,-210.2 45.7,-66.6 135.7,-85 203.8,-43.3"
         style="fill:#390176;fill-opacity:1;fill-rule:nonzero;stroke:none"
         id="path176" /><path
         d="m 20809,20865.8 c -36.2,117.8 -69,249.4 -98,376.4 -29.6,128.2 -54.4,257.9 -77.5,387.7 -44.9,260.1 -77.8,522.4 -97.8,785.4 -39.4,525.7 -31.6,1055 42.3,1573.7 16.7,130 41.9,258.3 66.2,386.8 29.6,127.2 56.2,255.2 94.1,380 32.7,126.4 77.6,248.6 118.3,372.3 48.6,120.5 92.1,243.3 149.2,360 211.3,475 508.7,907.2 862.8,1286.3 l 1.3,1.5 c 28.6,30.5 44.6,68.4 48.3,107 6.9,70.9 16.2,146.4 26.1,219.4 10.2,73.4 21.4,146.7 34.6,218.8 13.2,72.1 27.4,143.9 44.8,212.7 17.2,68.5 36.8,136.1 60,193.8 l -240.6,-94.1 c 108.6,-49.5 215.7,-96.2 325.8,-141.9 55.1,-22.7 110.8,-44.9 168.1,-66.4 28.9,-10.6 58.1,-21.1 89,-31.2 30.7,-10.1 63.9,-20 104.4,-28.8 94.6,-20.7 188,39.3 208.7,133.8 6.7,30.9 4.9,61.6 -3.9,89.7 l -1.8,5.3 c -33,104.2 -62.5,220.2 -82.9,330 -20.3,110.2 -32.6,222.4 -25.3,315.1 0.3,4.9 -0.3,-4.8 -1.6,-10.7 -1.4,-6.1 -2.8,-12.8 -5.2,-19.1 -4.4,-12.7 -10.8,-25.1 -18.8,-36 -16,-21.9 -37.4,-37.6 -61,-46.5 -23.5,-8.9 -50.4,-11.4 -76.5,-5.8 -12.9,2.8 -25.5,7.7 -36.3,13.5 l -7,4.3 2.9,-1.8 5.9,-3.4 c 31.5,-19 62.5,-35.1 93.6,-50.7 62.1,-29.8 124.4,-55.5 187,-77.1 125.8,-41.5 251.9,-72.1 378.6,-92.3 253.4,-38.3 506,-44.9 754.8,-30.9 248.8,14.8 494.2,52.5 733.9,112.3 22.3,5.5 35.8,28 30.2,50.2 -4.5,18.1 -20.2,30.4 -37.8,31.4 h -0.6 c -244.4,14 -485,24.2 -722.4,45.2 -237.3,20.2 -471.2,54 -695.5,107.5 -111.2,28.8 -221.3,58.4 -324.3,99.5 -52,18.9 -101.7,41 -148.8,64.6 -22.9,12.1 -45.7,24.5 -66,37.4 l -17.9,10.5 c -17.4,9.7 -37.3,17.1 -57.6,21.4 -40.9,8.9 -83.6,5.2 -121.2,-9.3 -37.7,-14.4 -71.8,-39.5 -96.8,-73.7 -12.4,-17.1 -22.5,-36.2 -29.3,-56.1 -3.3,-9.9 -6.3,-20.3 -8,-30.2 -1.9,-9.6 -3.3,-23 -3,-22 -11.9,-150.1 5.4,-281.5 27.5,-410.3 23.7,-129.2 53.2,-249.5 92.9,-377.4 l 203,228.9 c -16.2,3.9 -38.8,10.2 -63.2,18.4 -24.3,8.1 -49.7,17.4 -75.2,26.9 -51.4,19.6 -103.5,40.7 -155.7,62.5 -104.2,43.9 -209.8,90.7 -312.3,138.1 l -0.7,0.4 c -89.4,41.3 -195.3,2.4 -236.7,-87 -1,-2.2 -2.3,-5.1 -3.2,-7.4 -34.3,-84 -57,-163.6 -77.6,-242.9 -20.4,-79.2 -36.3,-157.3 -51,-235.4 -14.7,-78 -27.1,-155.7 -38.3,-233.5 -11.1,-78.3 -20.9,-154.3 -29.2,-235.5 l 49.6,108.5 c -383.9,-406.4 -709.8,-872.6 -938,-1383.7 -61.2,-125.9 -108.1,-257.6 -160,-387.2 -43.8,-132.4 -91.5,-263.7 -126.4,-398.6 -40.2,-133.5 -68.7,-269.7 -99.9,-405.2 -25.8,-136.5 -52.4,-272.9 -70,-410.5 -37.9,-274.7 -61,-551.1 -66.5,-827.4 -5.7,-276.3 5,-552.4 27.9,-827 23.2,-274.6 59.8,-547.7 108.8,-818.7 25.3,-135.4 52.3,-270.5 84.5,-404.8 32.3,-135.5 65.4,-265.7 109.5,-405.3 29.1,-92.1 127.4,-143.2 219.6,-114.1 91.6,29 142.7,126.5 114.5,218.2 l -1.4,4.5"
         style="fill:#390176;fill-opacity:1;fill-rule:nonzero;stroke:none"
         id="path178" /><path
         d="m 21629.5,26706.3 c -39.1,61.5 -73.7,110.2 -112.7,162.1 -38,51 -77.2,100.7 -118.4,148.6 -82.2,95.8 -167,189.3 -258.6,276 -181.1,175.4 -379.2,334 -592.9,470.2 -212.7,137.5 -440.6,253.2 -678.8,342.7 -60.1,20.9 -119.6,43.5 -180.2,62.9 l -183.4,53.1 c -123.9,29.2 -248.4,56 -374.6,72 -503.9,72.4 -1018,27.9 -1499.3,-101.7 -483.1,-124.2 -939.1,-343.7 -1309.5,-672.1 -9.7,-8.6 -10.7,-23.5 -2,-33.2 5.9,-6.7 14.8,-9.2 22.9,-7.3 l 1.2,0.3 c 121.1,28.1 235.1,66.3 348.9,103 116,31.5 227.8,70.2 340.8,103.6 56.7,16.1 113.3,31.8 169.2,49 l 83.8,25.8 84.7,21.6 168.4,45.3 c 55.8,15.9 113,25.6 169.3,38.7 112.5,27.9 227,42.1 340.7,59.6 56.7,9.7 114.3,10.8 171.3,16.7 57.1,4.7 114.1,10.9 171.4,10.1 228.5,11.1 456.2,-6.8 680,-42.1 223.5,-36.9 443.3,-95.2 654.2,-177.8 210.8,-82.5 413.8,-185.7 606.7,-306.3 192.1,-121.9 375.2,-259.9 543.7,-414.7 85,-76.6 166.5,-157.2 244.1,-240.9 38.8,-42 77,-84.4 113.5,-127.5 36.2,-42 73.8,-89.7 101.8,-127.9 l 5.4,-7.2 c 57.1,-77.9 166.6,-94.7 244.4,-37.5 74.6,54.7 92.8,158 44,234.9"
         style="fill:#390176;fill-opacity:1;fill-rule:nonzero;stroke:none"
         id="path180" /><path
         d="m 27423.5,24224.4 c 65.4,97.2 116.9,194.3 165.7,295.9 48,101.1 91.1,204.5 129.3,309.8 75.6,210.7 133.2,428.3 172.9,649.6 39.3,221.2 67.5,445.5 74.2,671.8 l 2,42.4 -1,47.5 c -1,31.6 -0.5,63.3 -5,94.8 -3.9,31.4 -5.8,63.2 -11.8,94.4 l -18.8,93.4 c -30.8,123.3 -80,242 -145,351.2 -130.5,218.2 -327.6,396.4 -559.2,501.5 -28.4,14.4 -57.8,26.1 -87.7,36.8 -29.7,11.2 -59.4,22.5 -90.2,30 -29.9,7.9 -62.6,18 -90.1,23.6 -28,5.9 -56,12.5 -84.1,17.6 -112.1,22.4 -224.5,38.6 -336.8,50.7 -448.5,50.1 -898.1,28.9 -1328.7,-87.8 -38.3,-10.4 -60.9,-49.9 -50.6,-88.2 7.9,-28.9 32.2,-48.9 60.2,-52.5 l 0.6,-0.1 c 435.4,-56.1 858.8,-70.5 1273,-128.6 103.1,-15.7 205.1,-34.6 305.5,-57 25.3,-5.3 50,-11.9 74.9,-17.9 25.6,-5.9 44.4,-13.3 66.9,-19.6 22,-5.6 42.7,-14.8 63.7,-23.1 21.2,-7.7 42.1,-16.2 62,-26.9 163.1,-77 301.7,-203.2 396.4,-356.1 48,-76.1 85.1,-159.1 109.3,-246 l 14.9,-65.9 c 5,-22 6.4,-44.7 10,-66.9 4.3,-22.3 3.8,-45.1 5.3,-67.6 l 1.8,-34 -0.7,-39 c 2.3,-208.2 -15.6,-417.1 -43.8,-624.7 -29.7,-207.5 -70,-414 -119.5,-619.2 -48,-204.5 -106.3,-412.1 -169.7,-610.1 l -1.5,-4.4 c -14.7,-46 10.7,-95.1 56.6,-109.8 37.8,-12.1 77.8,3 99,34.4"
         style="fill:#390176;fill-opacity:1;fill-rule:nonzero;stroke:none"
         id="path182" /><path
         d="m 22765.1,21223.8 c -0.9,6.4 -6,25.1 -9.6,38.8 -3.4,15.3 -7.9,30.2 -10.9,45.9 -7.7,30.9 -12.8,62.3 -18.4,93.4 -9.5,62.4 -14.4,124.2 -10.9,185.6 2.4,61.8 14.7,122.3 36.9,184 19.9,63.8 57.3,122.6 97.2,191.2 l 3.6,6.1 c 14.6,25 6.1,57.1 -18.9,71.7 -13.9,8.1 -30.2,9 -44.3,4 -81.5,-29.6 -164.3,-75.3 -227.6,-145.7 -17.4,-16.4 -32.9,-34.4 -46.2,-54.1 -13.5,-19.6 -29,-38.7 -40.8,-59.6 -22.1,-42.4 -45.3,-85.9 -58.5,-132.3 -29.8,-91.8 -42.3,-188.3 -37.9,-282 1.8,-46.9 7.8,-93.3 17.4,-138.9 4.9,-22.8 10.5,-45.7 17.6,-68.2 7.5,-23.9 14.3,-42.6 27.5,-72.8 38.3,-87.4 140.2,-127.2 227.7,-88.9 72.7,31.9 112.5,107.8 101.8,182.8 l -5.7,39"
         style="fill:#390176;fill-opacity:1;fill-rule:nonzero;stroke:none"
         id="path184" /><path
         d="m 22942.1,25599.8 c -66.1,-32.7 -124.8,-77 -179,-127 -55.3,-49.4 -102.5,-107.7 -145.5,-169.9 -84.5,-125.6 -138.8,-276.5 -155.4,-432.7 -17.3,-156.6 10.1,-315.6 67.5,-455.5 55.4,-141.9 148.3,-261.3 258.5,-356.3 31.9,-27.4 80,-23.9 107.5,8 15.9,18.5 21.4,42.3 17.1,64.4 l -1.6,7.8 c -27.1,134.7 -69.4,250.5 -87.6,367.8 -21.6,115.6 -36.5,226.7 -31.7,338.4 5,111.5 26.5,223.3 64.2,336.8 38.6,113 91.1,227.3 154.8,345.5 l 0.5,0.9 c 13.7,25.4 4.2,57.2 -21.2,70.9 -15.4,8.3 -33.5,8 -48.1,0.9"
         style="fill:#390176;fill-opacity:1;fill-rule:nonzero;stroke:none"
         id="path186" /><path
         d="m 22366.6,22424.3 v 560.9 c 0,132.6 -125.4,229 -253.8,195.6 -109.6,-28.5 -231.1,-106 -312.2,-293.3 -70.4,-162.5 -58.1,-353.3 48.9,-494.4 62.9,-82.8 157.4,-156.8 297.2,-170.4 118,-11.5 219.9,83 219.9,201.6"
         style="fill:#390176;fill-opacity:1;fill-rule:nonzero;stroke:none"
         id="path188" /><path
         d="m 21792.7,21511.8 c -121,71.3 -211,165.8 -265.7,271 -29,51.9 -49.1,108.7 -62.4,167.8 -6.1,29.8 -12.2,59.4 -13.7,90.8 -1.2,15.2 -3.5,31.1 -4,45.6 l 0.9,42.1 c 2.5,112.2 49.2,199.8 128.2,271.6 38.8,36.5 87.9,67 140.1,93.7 26.2,13.2 53.6,25.5 81.4,36.3 13.9,5.7 28.1,10 41.9,15.4 13,4.4 29.9,9.6 37.4,11.7 l 9.6,2.7 c 79.6,22.5 125.9,105.3 103.4,185 -21.4,76 -98.4,121.5 -174.6,105.9 -27.2,-5.6 -44.4,-10.5 -65.5,-16.3 -19.9,-6.1 -39.8,-12 -58.9,-19.5 -38.7,-14.4 -76.7,-30.4 -113.6,-50.1 -74,-38.3 -145.5,-86.4 -207.9,-150.3 -16.4,-14.5 -30.8,-32.2 -45.1,-49.7 -14,-17.7 -28.9,-34.4 -40.3,-54.8 l -35.4,-59 -27.3,-63.9 c -9.8,-21 -14.9,-43.5 -20.1,-65.9 -4.5,-22.4 -11.8,-44.7 -13.2,-67.1 -2.5,-44.7 -8.9,-90.2 -2.4,-132.8 l 6.3,-64.4 c 2.9,-20.9 8.6,-39.9 12.9,-59.7 7.9,-39.3 21.1,-78.2 35,-116.7 29,-76.2 66.6,-151.7 121.6,-214.9 107.5,-127.4 267.4,-207.5 425.5,-194.1 11.2,0.9 19.6,10.8 18.6,22 -0.5,6.8 -4.4,12.6 -9.8,15.9 l -2.9,1.7"
         style="fill:#390176;fill-opacity:1;fill-rule:nonzero;stroke:none"
         id="path190" /><path
         d="m 21843.6,24257.4 c -169.4,10.9 -341,-74.5 -455.7,-211.3 -115.6,-138 -169.1,-313.2 -192.4,-480.5 -12.6,-85.9 -12.4,-184.9 11.2,-279.4 23.3,-95.2 71.1,-185.6 132.8,-260.5 62.7,-74.2 137.2,-134 216.6,-179.4 39.6,-23.1 80.5,-42.7 122.5,-59.3 21.1,-8.3 42.2,-16.3 64.1,-22.8 23.2,-6.9 41.3,-12.3 71.6,-18.9 80.9,-17.4 160.6,34 178,114.9 16.6,77 -29.2,152.9 -103.4,175.1 l -11.3,3.3 c -7.3,2.1 -26.3,8.1 -39.9,13.2 l -44.8,17.2 c -29.6,12.6 -58.6,26.5 -86.3,41.7 -54.8,31.3 -104.8,67 -143.9,109.5 -39.8,41.8 -69.7,89.4 -88.8,143.3 -19.9,54.3 -28.4,112.5 -25.7,180.4 2.5,139.8 32.8,274.2 97.6,389.9 63.5,115.3 166.5,217.7 302.6,283.8 l 2.7,1.3 c 10.1,4.9 14.3,17 9.4,27.1 -3.3,6.8 -9.9,10.9 -16.9,11.4"
         style="fill:#390176;fill-opacity:1;fill-rule:nonzero;stroke:none"
         id="path192" /><path
         d="m 25062.3,26473.5 c 139.5,-16.5 276.5,-29.6 413.1,-50.2 136.4,-20.8 272,-41.6 406.9,-67.3 134.7,-25.5 269.1,-52.1 402.5,-82.3 132.3,-29.9 268.6,-62.8 393.4,-97.9 l -124,136.4 c 4,-30.3 9.4,-73.2 12.5,-111.1 3.4,-39.3 5.7,-79 7.5,-118.8 3.9,-79.7 4.8,-160 3.6,-240.5 -2.1,-160.9 -12.8,-322.3 -32.2,-483.4 -18.3,-161.2 -46.5,-321.9 -80.9,-482.9 -34.6,-161.1 -79.8,-320.7 -126.2,-484.5 l -0.1,-0.4 c -6.6,-23.3 6.9,-47.5 30.2,-54 17.6,-5 35.8,1.7 46.5,15.3 106.8,138.2 192.2,291.8 265.7,451.7 71.2,160.6 127.8,328.7 167.9,501 40.3,172.3 64.6,348.5 73.8,526.1 4.3,88.8 4.5,177.8 1.2,267.3 -2.4,44.7 -5.3,89.5 -9.5,134.6 -4.7,46.3 -8.8,87.7 -18.4,141 l -0.9,4.5 c -12,66.3 -61.8,116.2 -123.1,131.8 -146.2,37 -284.3,63.1 -427.6,84.7 -142.4,20.7 -285.5,35.5 -429.3,42.5 -143.5,8 -287.8,7.8 -431.6,-1.9 -143.7,-7.8 -287.3,-28.1 -427.7,-58.7 -28.2,-6.1 -46,-33.9 -39.9,-62.1 4.9,-22.3 23.3,-38.1 44.7,-40.7 l 1.9,-0.2"
         style="fill:#390176;fill-opacity:1;fill-rule:nonzero;stroke:none"
         id="path194" /><path
         d="m 27512.3,19379.8 c 7.8,183.9 -47.8,356.9 -129.9,515.7 -20.5,39.8 -42.2,79.2 -67.6,116 -25.2,37 -47.8,76.4 -76.4,111 -27.9,35.2 -54.4,72 -84,106 l -92.8,98.6 c -31.5,32.5 -66.6,60.9 -99.9,91.5 l -51.1,44.9 -54.7,39.8 c -36.7,26.2 -72.9,53.6 -110.4,78.8 l -116.7,68.2 -58.8,33.8 -61,28.3 -123,55 c -83,33.1 -168.7,58.2 -253.6,85.5 -91.8,29.6 -190.1,-20.8 -219.7,-112.5 -28.9,-89.6 18.4,-185.4 106,-217.5 l 18.6,-6.8 c 73.1,-26.7 148.1,-48.5 220.7,-75.3 l 106.8,-44.5 53.9,-21.5 51.2,-26.3 103,-52 c 33.2,-19.1 65.2,-40 98.1,-59.8 l 49.2,-30.1 46.3,-34 c 30.4,-23.1 63.2,-44 92.4,-68.8 119.1,-97.2 226.5,-209.5 318.7,-335.2 47.7,-62 90,-127.8 135,-194.1 42.1,-67.1 84.7,-137.7 125.1,-207.9 l 2.5,-4.4 c 10.7,-18.5 34.3,-24.8 52.7,-14.2 11.9,6.8 18.7,19.1 19.4,31.8"
         style="fill:#390176;fill-opacity:1;fill-rule:nonzero;stroke:none"
         id="path196" /><path
         d="m 26354.6,19369.7 c 315.5,-184.4 950.5,-509 1658.3,-611.8 147.4,-21.5 286.7,82.4 310.6,231.2 75.3,469.4 203.3,1420 214,2512.6 0.1,14.1 2,28.2 5.5,41.8 9.5,37 925.7,3732.9 -898.7,6742.9 -1075.1,1773.8 -2883.3,2969.4 -5374.1,3553.5 -2124.9,498.3 -4337.2,282.8 -6229.6,-607 -1451.7,-682.6 -2583.1,-1673.7 -3362.8,-2945.8 -1148.1,-1873.2 -1704.8,-4719.1 -360.3,-6854.3 964.1,-1531.3 3252.4,-3238.9 8680.4,-2678.5 30,2.8 3025.2,288 4723.8,706.5 68.1,16.8 137,25.1 205.5,25.1 149.1,0 296,-39.4 427.4,-116.2 m -14333.3,1876.6 c -644.5,1023.7 -928.8,2282.7 -822,3641 96.3,1225.9 515.4,2498.3 1180,3582.7 816.1,1331.4 1997.7,2367.5 3512.3,3079.6 1963.4,923.2 4257.1,1147.3 6458.5,631 2587.1,-606.7 4469.6,-1856.7 5595.1,-3715.5 994.3,-1641.9 1196.1,-3459.6 1190.3,-4695.3 -5.9,-1242.8 -211.4,-2141.1 -248.2,-2292.1 -12.4,-1106.8 -141.8,-2068 -218.2,-2544.1 -54,-336.6 -370.8,-570.6 -706.5,-522.1 -766.5,111.3 -1447.1,458.8 -1784.6,656.1 -112.7,65.9 -245,84.8 -372.6,53.4 -1723.8,-424.8 -4744.4,-712.3 -4773.2,-715 -732.7,-75.7 -1409.7,-110.6 -2036.7,-110.6 -4168.7,0.2 -6090.1,1546.9 -6974.2,2950.9"
         style="fill:#390176;fill-opacity:1;fill-rule:nonzero;stroke:none"
         id="path198" /><path
         d="m 20000,19079.5 c 2728.7,0 3742.9,-888.4 3742.9,-888.4 0,0 -3612.5,-1300.1 -7485.8,0 0,0 1014.2,888.4 3742.9,888.4"
         style="fill:#0fc3ed;fill-opacity:1;fill-rule:nonzero;stroke:none"
         id="path200" /><path
         d="m 17804.3,18170.8 -290.6,152.7 c -143,75.3 -310.2,-46.2 -282.9,-205.5 l 55.5,-323.5 c 10.8,-63.3 -10.1,-127.8 -56.1,-172.6 l -235,-229.2 c -115.8,-112.8 -51.9,-309.3 108,-332.6 l 324.9,-47.2 c 63.5,-9.2 118.4,-49.1 146.8,-106.6 l 145.3,-294.4 c 71.5,-144.9 278.2,-144.9 349.7,0 l 145.3,294.4 c 28.4,57.5 83.3,97.4 146.8,106.6 l 324.8,47.2 c 160,23.3 223.8,219.8 108.1,332.6 l -235.1,229.2 c -45.9,44.8 -66.9,109.3 -56.1,172.6 l 55.5,323.5 c 27.3,159.3 -139.8,280.8 -282.9,205.5 l -290.5,-152.7 c -56.9,-29.9 -124.7,-29.9 -181.5,0"
         style="fill:#ffffff;fill-opacity:1;fill-rule:nonzero;stroke:none"
         id="path202" /><path
         d="m 23359.3,17863.7 c -110,0 -235.6,42.4 -400.7,105.3 412.2,98.5 679.5,186.1 759.2,213.3 8.4,-5.6 16.7,-11.4 25.1,-17.1 0,0 100,-233 -325.9,-297.3 -18.8,-2.9 -38,-4.2 -57.7,-4.2 m -6718.6,0 c -19.7,0 -38.8,1.3 -57.7,4.2 -425.9,64.3 -325.9,297.3 -325.9,297.3 8.5,5.8 16.9,11.6 25.4,17.4 250.1,-83.2 499.4,-155.8 746.3,-218.4 -158.9,-60.3 -280.9,-100.5 -388.1,-100.5"
         style="fill:#b7edfa;fill-opacity:1;fill-rule:nonzero;stroke:none"
         id="path204" /><path
         d="m 17388.1,18732 c -2.1,0.2 -3.8,0.4 -6,0.6 869.1,308.5 1715.7,362.4 2201,362.4 260.6,0 416.9,-15.5 416.9,-15.5 -1165,0 -2017.4,-161.9 -2611.9,-347.5 m 4550.1,170.8 c -516.5,103.9 -1157.1,176.7 -1938.2,176.7 0,0 156.4,15.5 416.9,15.5 351.2,0 891.6,-28.2 1492.9,-160.7 9.2,-10.6 18.7,-21.1 28.4,-31.5"
         style="fill:#dfdae9;fill-opacity:1;fill-rule:nonzero;stroke:none"
         id="path206" /><path
         d="m 22084.3,18871.8 c -47.5,10.6 -96.2,20.9 -146.1,31 -9.7,10.4 -19.2,20.9 -28.4,31.5 76.3,-16.8 153.7,-35.4 231.7,-55.7 -19.3,-2.3 -38.2,-4.5 -57.2,-6.8"
         style="fill:#ede8f3;fill-opacity:1;fill-rule:nonzero;stroke:none"
         id="path208" /><path
         d="m 22679.5,18710.4 c -174.3,56.8 -372.2,111.9 -595.2,161.4 19,2.3 37.9,4.5 57.2,6.8 176.7,-46.1 357,-101.5 538,-168.2 m -5358.8,0 c 20.4,7.6 41,15 61.4,22.2 2.2,-0.2 3.9,-0.4 6,-0.6 -22.8,-7.2 -45.3,-14.4 -67.4,-21.6"
         style="fill:#c3b2d6;fill-opacity:1;fill-rule:nonzero;stroke:none"
         id="path210" /><path
         d="m 17028.8,17964.2 c -246.9,62.6 -496.2,135.2 -746.3,218.4 333.7,227 687.1,398.5 1038.2,527.8 22.1,7.2 44.6,14.4 67.4,21.6 594.5,185.6 1446.9,347.5 2611.9,347.5 v 0 0 c 781.1,0 1421.7,-72.8 1938.2,-176.7 49.9,-10.1 98.6,-20.4 146.1,-31 223,-49.5 420.9,-104.6 595.2,-161.4 351.1,-129.4 704.7,-301 1038.3,-528.1 -79.7,-27.2 -347,-114.8 -759.2,-213.3 -474,180.6 -1272.9,530.3 -2958.6,530.3 -1064.2,0 -1774.8,-139.4 -2273.6,-287.6 l -212.7,111.8 c -29.8,15.7 -60.8,22.9 -90.7,22.9 -113.7,0 -213.8,-102.4 -192.2,-228.4 l 12.3,-71.5 c -78.6,-29.9 -149.5,-57.8 -214.3,-82.3"
         style="fill:#b7edfa;fill-opacity:1;fill-rule:nonzero;stroke:none"
         id="path212" /><path
         d="m 17243.1,18046.5 -12.3,71.5 c -21.6,126 78.5,228.4 192.2,228.4 29.9,0 60.9,-7.2 90.7,-22.9 l 212.7,-111.8 c -189,-56.1 -347.6,-113.6 -483.3,-165.2"
         style="fill:#ffffff;fill-opacity:1;fill-rule:nonzero;stroke:none"
         id="path214" /><path
         d="m 23784.4,18238.4 c -123.7,127.9 -259.6,223.6 -404.3,311.2 -35.4,23.2 -72.1,43.7 -109.2,63.1 l -111,60 c -75.3,36.7 -151.7,71.5 -228.3,105.7 -308.4,132.6 -631.3,221.7 -955.7,295.6 -325,74.8 -654.8,117.3 -984.6,150.9 -165.2,12.4 -330.5,21.6 -495.8,29 -165.3,0.8 -330.4,3.1 -495.5,0.6 -96.6,-1.5 -173.8,-81 -172.3,-177.6 1.4,-92.2 73.8,-166.6 164.4,-172 l 7.9,-0.4 c 160.2,-9.1 320.3,-13.4 480.4,-19.2 l 478.2,-34.1 238.1,-23.9 c 79.4,-7.4 158.8,-15.4 237.4,-27.8 l 236.7,-31.9 c 78.8,-11.1 156.4,-27.5 234.8,-41 312.9,-55.1 622.1,-129.2 923.6,-224.6 l 225.2,-74.7 c 73.5,-28.1 149.1,-53.4 221.7,-83.9 146,-57.6 294.2,-124.6 425.2,-199.7 l 6.4,-3.7 c 30.2,-17.3 68.7,-6.9 86.1,23.3 14.2,24.9 9.6,55.5 -9.4,75.1"
         style="fill:#390176;fill-opacity:1;fill-rule:nonzero;stroke:none"
         id="path216" /><path
         d="m 16298.7,18143.7 c 131,75.1 279.2,142.1 425.2,199.7 72.6,30.5 148.2,55.8 221.7,83.9 l 225.2,74.7 c 301.5,95.4 610.7,169.5 923.6,224.6 78.4,13.5 156,29.9 234.8,41 l 236.7,31.9 c 78.6,12.4 158,20.4 237.4,27.8 l 238.1,23.9 478.2,34.1 c 160.1,5.8 320.2,10.1 480.4,19.2 l 7.3,0.4 c 96.4,5.5 170.2,88.1 164.7,184.6 -5.2,92 -81.3,163.4 -172,165 -165.1,2.5 -330.2,0.2 -495.5,-0.6 -165.3,-7.4 -330.6,-16.6 -495.8,-29 -329.8,-33.6 -659.6,-76.1 -984.6,-150.9 -324.4,-73.9 -647.3,-163 -955.7,-295.6 -76.6,-34.2 -153,-69 -228.3,-105.7 l -111,-60 c -37.1,-19.4 -73.8,-39.9 -109.2,-63.1 -144.7,-87.6 -280.6,-183.3 -404.3,-311.1 -24.2,-25.1 -23.5,-65 1.5,-89.2 20.6,-19.9 51.4,-23 75.1,-9.4 l 6.5,3.8"
         style="fill:#390176;fill-opacity:1;fill-rule:nonzero;stroke:none"
         id="path218" /></g></g></svg>
